<?xml version="1.0" encoding="utf-8"?>
<!-- Generator: Adobe Illustrator 16.0.0, SVG Export Plug-In . SVG Version: 6.00 Build 0)  -->
<svg version="1.2" baseProfile="tiny" id="Layer_1" xmlns="http://www.w3.org/2000/svg" xmlns:xlink="http://www.w3.org/1999/xlink"
	 x="0px" y="0px" viewBox="24 1185 2954 630" xml:space="preserve">
<g>
	<rect x="1599.518" y="1188.998" fill="#ED1F24" width="55.977" height="621.984"/>
	<polygon fill="#ED1F24" points="2378.552,1188.998 2558.931,1188.998 2558.931,1240.313 2496.732,1240.313 2496.732,1810.982 
		2440.756,1810.982 2440.756,1240.313 2378.552,1240.313 	"/>
	<polygon fill="#ED1F24" points="1548.202,1188.998 1548.202,1810.982 1489.111,1810.982 1403.596,1433.135 1403.596,1810.982 
		1347.612,1810.982 1347.612,1188.998 1398.929,1188.998 1492.226,1601.071 1492.226,1188.998 	"/>
	<polygon fill="#ED1F24" points="318.228,1188.998 318.228,1810.982 262.244,1810.982 262.244,1277.634 193.825,1810.982 
		147.177,1810.982 80.317,1277.634 80.317,1810.982 24.341,1810.982 24.341,1188.998 119.191,1188.998 173.614,1563.745 
		224.93,1188.998 	"/>
	<path fill="#ED1F24" d="M1007.077,1810.982c43.541-59.084,69.973-133.73,69.973-213.031c0-199.029-161.715-359.191-359.197-359.191
		c-199.036,0-359.198,161.709-359.198,359.191c0,79.308,26.438,153.947,69.973,213.031h74.64
		c-54.423-54.423-88.635-130.623-88.635-213.031c0-167.931,135.277-303.208,303.214-303.208
		c166.384,0,301.668,135.277,301.668,303.208c0,82.415-34.213,158.608-87.082,213.031H1007.077z"/>
	<path fill="#ED1F24" d="M2762.634,1810.982h-55.983l-13.996-139.944h-82.415l-13.989,139.944h-55.977l63.751-621.985h85.529
		L2762.634,1810.982z M2687.993,1615.061l-37.307-343.648l-34.213,343.648H2687.993z"/>
	<path fill="#ED1F24" d="M2087.772,1733.235c0,27.992-17.109,41.987-35.772,41.987c-18.651,0-35.754-14.002-35.754-41.987v-469.592
		c0-27.991,17.103-41.987,35.754-41.987c18.663,0,35.772,14.003,35.772,41.987v21.765v116.621h57.524v-88.63v-26.438
		c0-77.747-31.1-115.067-93.297-115.067c-55.971,0-93.291,40.428-93.291,101.071v23.324v388.743v24.872
		c0,79.301,31.105,118.181,94.857,118.181c63.765,0,93.297-38.88,93.297-119.741v-225.467h-104.186v54.423h48.202V1713
		L2087.772,1733.235z"/>
	<path fill="#ED1F24" d="M2321.021,1717.692v-161.716l-129.057-96.404v-180.379c0-71.532,32.652-107.293,94.857-107.293
		c63.751,0,91.73,35.761,93.29,115.067v24.878v91.743h-57.524v-122.842v-17.104c0-27.991-17.103-41.987-34.212-41.987
		c-18.657,0-34.206,14.003-34.206,41.987v18.657v150.834l127.503,96.404v186.6c0,73.074-32.653,111.967-93.291,111.967
		c-62.198,0-93.29-37.326-93.29-108.847v-24.871v-121.32h59.084v143.065v17.097c0,27.991,17.104,41.98,34.206,41.98
		c18.663,0,35.76-14.008,35.76-41.98L2321.021,1717.692z"/>
	<path fill="#ED1F24" d="M1313.406,1810.982h-55.978c-7.774-20.217-10.882-40.421-10.882-66.858v-31.111v-15.544v-121.281
		c0-24.878-15.55-37.314-32.652-37.314h-40.428v273.664h-55.977v-621.985h73.086c80.854,0,111.96,29.545,111.96,108.846v116.621
		c0,52.87-9.334,74.641-49.756,88.636h1.555c38.873,10.889,46.648,26.432,48.201,74.641v21.764v115.074
		C1300.964,1758.113,1304.071,1779.884,1313.406,1810.982z M1171.901,1238.76v245.678h18.662c37.32,0,54.424-17.103,54.424-52.863
		v-125.955c0-51.31-12.436-66.859-49.756-66.859H1171.901L1171.901,1238.76z M2975.659,1810.982h-55.971
		c-7.769-20.217-10.895-40.421-10.895-66.858v-31.111v-15.544v-121.281c0-24.878-15.55-37.314-32.653-37.314h-40.421v273.664
		h-55.977v-621.985h73.08c80.861,0,111.959,29.545,111.959,108.846v116.621c0,52.87-9.328,74.641-49.762,88.636h1.561
		c38.873,10.889,46.648,26.432,48.201,74.641v21.764v115.074C2963.224,1758.113,2966.331,1779.884,2975.659,1810.982z
		 M2832.606,1238.76v245.678h20.211c37.319,0,54.422-17.103,54.422-52.863v-125.955c0-51.31-12.447-66.859-49.762-66.859H2832.606
		L2832.606,1238.76z"/>
	<polygon fill="#ED1F24" points="1905.847,1188.998 1905.847,1810.982 1846.749,1810.982 1762.78,1433.135 1762.78,1810.982 
		1706.811,1810.982 1706.811,1188.998 1758.12,1188.998 1849.869,1601.071 1849.869,1188.998 	"/>
</g>
</svg>
