<svg width="1200" height="630" viewBox="0 0 1200 630" xmlns="http://www.w3.org/2000/svg" role="img" aria-label="Three autonomous automation loops running without manual intervention.">
  <style>
    :root { --accent: #a78bfa; --muted: rgba(255,255,255,0.28); }
    svg { font-family: "DM Sans", Arial, sans-serif; }
  </style>
  <defs>
    <radialGradient id="glow" cx="50%" cy="48%" r="58%">
      <stop offset="0%" stop-color="#a78bfa" stop-opacity="0.22"/>
      <stop offset="55%" stop-color="#a78bfa" stop-opacity="0.08"/>
      <stop offset="100%" stop-color="#08111f" stop-opacity="0"/>
    </radialGradient>
    <linearGradient id="edge" x1="0" y1="0" x2="1" y2="1">
      <stop offset="0" stop-color="rgba(255,255,255,0.16)"/>
      <stop offset="1" stop-color="rgba(255,255,255,0.03)"/>
    </linearGradient>
  </defs>
  <rect width="1200" height="630" fill="#08111f"/>
  <rect width="1200" height="630" fill="url(#glow)"/>
  <path d="M0 540 C190 475 330 605 520 535 C720 460 850 520 1200 410 L1200 630 L0 630Z" fill="rgba(255,255,255,0.035)"/>
  <path d="M110 110 H1090 V520" fill="none" stroke="url(#edge)" stroke-width="2"/>
  <text x="110" y="86" fill="#a78bfa" font-size="24" font-weight="700" letter-spacing="0">Automation Architecture</text>
  <text x="110" y="580" fill="rgba(255,255,255,0.82)" font-size="34" font-weight="700" letter-spacing="0">Always-On Systems</text>
  <path d="M350 360 C250 430 300 560 420 540 C535 520 540 365 425 355" fill="none" stroke="var(--accent)" stroke-width="7" opacity="0.9"/><circle cx="425" cy="355" r="20" fill="var(--accent)" opacity="0.95"/><path d="M530 360 C430 430 480 560 600 540 C715 520 720 365 605 355" fill="none" stroke="var(--accent)" stroke-width="7" opacity="0.75"/><circle cx="605" cy="355" r="20" fill="var(--accent)" opacity="0.95"/><path d="M710 360 C610 430 660 560 780 540 C895 520 900 365 785 355" fill="none" stroke="var(--accent)" stroke-width="7" opacity="0.6000000000000001"/><circle cx="785" cy="355" r="20" fill="var(--accent)" opacity="0.95"/>
</svg>