<svg width="1200" height="630" viewBox="0 0 1200 630" xmlns="http://www.w3.org/2000/svg" role="img" aria-label="Autonomous AI content experiment moving through research, writing, and processing before receiving an honest 7 out of 10 score.">
  <style>
    :root { --accent: #f472b6; --muted: rgba(255,255,255,0.28); }
    svg { font-family: "DM Sans", Arial, sans-serif; }
  </style>
  <defs>
    <radialGradient id="glow" cx="50%" cy="48%" r="58%">
      <stop offset="0%" stop-color="#f472b6" stop-opacity="0.22"/>
      <stop offset="55%" stop-color="#f472b6" stop-opacity="0.08"/>
      <stop offset="100%" stop-color="#08111f" stop-opacity="0"/>
    </radialGradient>
    <linearGradient id="edge" x1="0" y1="0" x2="1" y2="1">
      <stop offset="0" stop-color="rgba(255,255,255,0.16)"/>
      <stop offset="1" stop-color="rgba(255,255,255,0.03)"/>
    </linearGradient>
  </defs>
  <rect width="1200" height="630" fill="#08111f"/>
  <rect width="1200" height="630" fill="url(#glow)"/>
  <path d="M0 540 C190 475 330 605 520 535 C720 460 850 520 1200 410 L1200 630 L0 630Z" fill="rgba(255,255,255,0.035)"/>
  <path d="M110 110 H1090 V520" fill="none" stroke="url(#edge)" stroke-width="2"/>
  <text x="110" y="86" fill="#f472b6" font-size="24" font-weight="700" letter-spacing="0">AI Agents in Practice</text>
  <text x="110" y="580" fill="rgba(255,255,255,0.82)" font-size="34" font-weight="700" letter-spacing="0">Agent Content Pipeline</text>
  <g transform="translate(125 192)">
        <rect x="0" y="0" width="950" height="300" rx="20" fill="rgba(244,114,182,0.07)" stroke="rgba(244,114,182,0.45)" stroke-width="2"/>
        <text x="34" y="42" fill="#f9a8d4" font-size="16" font-weight="700" letter-spacing="0">AUTONOMOUS RUN  |  HUMAN EDITS: 0</text>
        <rect x="34" y="92" width="170" height="88" rx="14" fill="rgba(255,255,255,0.06)" stroke="#60a5fa" stroke-width="2" opacity="0.95"/>
  <text x="54" y="126" fill="rgba(255,255,255,0.86)" font-size="19" font-weight="700" letter-spacing="0">Research</text>
  <text x="54" y="154" fill="rgba(255,255,255,0.48)" font-size="14" font-weight="600" letter-spacing="0">sources + topic</text><rect x="244" y="92" width="170" height="88" rx="14" fill="rgba(255,255,255,0.06)" stroke="#c084fc" stroke-width="2" opacity="0.95"/>
  <text x="264" y="126" fill="rgba(255,255,255,0.86)" font-size="19" font-weight="700" letter-spacing="0">Write</text>
  <text x="264" y="154" fill="rgba(255,255,255,0.48)" font-size="14" font-weight="600" letter-spacing="0">agent draft</text><line x1="214" y1="136" x2="244" y2="136" stroke="#c084fc" stroke-width="3" stroke-linecap="round" opacity="0.78"/><polyline points="230.49075319196777,144.57322871966394 244,136 230.49075319196777,127.42677128033606" fill="none" stroke="#c084fc" stroke-width="3" stroke-linecap="round" stroke-linejoin="round" opacity="0.78"/><rect x="454" y="92" width="170" height="88" rx="14" fill="rgba(255,255,255,0.06)" stroke="#f472b6" stroke-width="2" opacity="0.95"/>
  <text x="474" y="126" fill="rgba(255,255,255,0.86)" font-size="19" font-weight="700" letter-spacing="0">Process</text>
  <text x="474" y="154" fill="rgba(255,255,255,0.48)" font-size="14" font-weight="600" letter-spacing="0">voice + patterns</text><line x1="424" y1="136" x2="454" y2="136" stroke="#f472b6" stroke-width="3" stroke-linecap="round" opacity="0.78"/><polyline points="440.49075319196777,144.57322871966394 454,136 440.49075319196777,127.42677128033606" fill="none" stroke="#f472b6" stroke-width="3" stroke-linecap="round" stroke-linejoin="round" opacity="0.78"/>
        <line x1="624" y1="136" x2="690" y2="136" stroke="#f472b6" stroke-width="4" stroke-linecap="round" opacity="0.78"/><polyline points="676.4907531919678,144.57322871966394 690,136 676.4907531919678,127.42677128033606" fill="none" stroke="#f472b6" stroke-width="4" stroke-linecap="round" stroke-linejoin="round" opacity="0.78"/>
        <rect x="690" y="70" width="220" height="150" rx="18" fill="rgba(244,114,182,0.16)" stroke="#f472b6" stroke-width="3"/>
        <text x="744" y="105" fill="#f9a8d4" font-size="16" font-weight="700" letter-spacing="0">HONEST RESULT</text>
        <text x="756" y="170" fill="#fbcfe8" font-size="54" font-weight="800" letter-spacing="0">7/10</text>
        <text x="718" y="202" fill="rgba(255,255,255,0.58)" font-size="16" font-weight="700" letter-spacing="0">infrastructure != editor</text>
        <rect x="34" y="238" width="876" height="2" fill="rgba(255,255,255,0.12)"/>
        <text x="34" y="272" fill="rgba(255,255,255,0.62)" font-size="16" font-weight="700" letter-spacing="0">the system handled mechanics; judgment still broke</text>
      </g>
</svg>