<svg width="1200" height="630" viewBox="0 0 1200 630" xmlns="http://www.w3.org/2000/svg" role="img" aria-label="AI coding assistant workflow showing capability, guardrails, observability, and review limits.">
  <style>
    :root { --accent: #60a5fa; --muted: rgba(255,255,255,0.28); }
    svg { font-family: "DM Sans", Arial, sans-serif; }
  </style>
  <defs>
    <radialGradient id="glow" cx="50%" cy="48%" r="58%">
      <stop offset="0%" stop-color="#60a5fa" stop-opacity="0.22"/>
      <stop offset="55%" stop-color="#60a5fa" stop-opacity="0.08"/>
      <stop offset="100%" stop-color="#08111f" stop-opacity="0"/>
    </radialGradient>
    <linearGradient id="edge" x1="0" y1="0" x2="1" y2="1">
      <stop offset="0" stop-color="rgba(255,255,255,0.16)"/>
      <stop offset="1" stop-color="rgba(255,255,255,0.03)"/>
    </linearGradient>
  </defs>
  <rect width="1200" height="630" fill="#08111f"/>
  <rect width="1200" height="630" fill="url(#glow)"/>
  <path d="M0 540 C190 475 330 605 520 535 C720 460 850 520 1200 410 L1200 630 L0 630Z" fill="rgba(255,255,255,0.035)"/>
  <path d="M110 110 H1090 V520" fill="none" stroke="url(#edge)" stroke-width="2"/>
  <text x="110" y="86" fill="#60a5fa" font-size="24" font-weight="700" letter-spacing="0">AI-Powered Engineering Teams</text>
  <text x="110" y="580" fill="rgba(255,255,255,0.82)" font-size="34" font-weight="700" letter-spacing="0">AI Coding Limits</text>
  <rect x="320" y="270" width="700" height="390" rx="18" fill="rgba(255,255,255,0.055)" stroke="rgba(255,255,255,0.16)" stroke-width="2" /><line x1="410" y1="310" x2="410" y2="620" stroke="var(--accent)" stroke-width="4" stroke-linecap="round" opacity="0.75"/><line x1="930" y1="310" x2="930" y2="620" stroke="var(--accent)" stroke-width="4" stroke-linecap="round" opacity="0.75"/><path d="M505 440 C600 350 730 350 835 440 C735 535 600 535 505 440Z" fill="rgba(255,255,255,0.08)" stroke="rgba(255,255,255,0.18)" stroke-width="3"/><circle cx="670" cy="440" r="52" fill="var(--accent)" opacity="0.95"/>
</svg>