<svg width="1200" height="630" viewBox="0 0 1200 630" xmlns="http://www.w3.org/2000/svg" role="img" aria-label="AI agent harness diagram showing guides, sensors, tools, memory, and verification around a language model.">
  <style>
    :root { --accent: #38bdf8; --muted: rgba(255,255,255,0.28); }
    svg { font-family: "DM Sans", Arial, sans-serif; }
  </style>
  <defs>
    <radialGradient id="glow" cx="50%" cy="48%" r="58%">
      <stop offset="0%" stop-color="#38bdf8" stop-opacity="0.22"/>
      <stop offset="55%" stop-color="#38bdf8" stop-opacity="0.08"/>
      <stop offset="100%" stop-color="#08111f" stop-opacity="0"/>
    </radialGradient>
    <linearGradient id="edge" x1="0" y1="0" x2="1" y2="1">
      <stop offset="0" stop-color="rgba(255,255,255,0.16)"/>
      <stop offset="1" stop-color="rgba(255,255,255,0.03)"/>
    </linearGradient>
  </defs>
  <rect width="1200" height="630" fill="#08111f"/>
  <rect width="1200" height="630" fill="url(#glow)"/>
  <path d="M0 540 C190 475 330 605 520 535 C720 460 850 520 1200 410 L1200 630 L0 630Z" fill="rgba(255,255,255,0.035)"/>
  <path d="M110 110 H1090 V520" fill="none" stroke="url(#edge)" stroke-width="2"/>
  <text x="110" y="86" fill="#38bdf8" font-size="24" font-weight="700" letter-spacing="0">AI Agents in Practice</text>
  <text x="110" y="580" fill="rgba(255,255,255,0.82)" font-size="34" font-weight="700" letter-spacing="0">Agent Harness</text>
  <g transform="translate(150 174)">
        <rect x="350" y="10" width="520" height="330" rx="20" fill="rgba(56,189,248,0.08)" stroke="#38bdf8" stroke-width="2" stroke-dasharray="9 7"/>
        <text x="555" y="45" fill="#7dd3fc" font-size="16" font-weight="700" letter-spacing="0">harness</text>
        <rect x="0" y="30" width="250" height="58" rx="14" fill="rgba(255,255,255,0.06)" stroke="#94a3b8" stroke-width="2" opacity="0.95"/>
  <text x="20" y="64" fill="rgba(255,255,255,0.86)" font-size="19" font-weight="700" letter-spacing="0">User Request</text>
  
        <rect x="0" y="118" width="250" height="58" rx="14" fill="rgba(255,255,255,0.06)" stroke="#60a5fa" stroke-width="2" opacity="0.95"/>
  <text x="20" y="152" fill="rgba(255,255,255,0.86)" font-size="19" font-weight="700" letter-spacing="0">Agent Loop</text>
  <text x="20" y="180" fill="rgba(255,255,255,0.48)" font-size="14" font-weight="600" letter-spacing="0">acts, observes, repeats</text>
        <rect x="0" y="206" width="250" height="58" rx="14" fill="rgba(255,255,255,0.06)" stroke="#2dd4bf" stroke-width="2" opacity="0.95"/>
  <text x="20" y="240" fill="rgba(255,255,255,0.86)" font-size="19" font-weight="700" letter-spacing="0">Model</text>
  <text x="20" y="268" fill="rgba(255,255,255,0.48)" font-size="14" font-weight="600" letter-spacing="0">the brain</text>
        <line x1="125" y1="88" x2="125" y2="118" stroke="#94a3b8" stroke-width="3" stroke-linecap="round" opacity="0.78"/><polyline points="116.42677128033604,104.49075319196777 125,118 133.57322871966394,104.49075319196777" fill="none" stroke="#94a3b8" stroke-width="3" stroke-linecap="round" stroke-linejoin="round" opacity="0.78"/>
        <line x1="125" y1="176" x2="125" y2="206" stroke="#94a3b8" stroke-width="3" stroke-linecap="round" opacity="0.78"/><polyline points="116.42677128033604,192.49075319196777 125,206 133.57322871966394,192.49075319196777" fill="none" stroke="#94a3b8" stroke-width="3" stroke-linecap="round" stroke-linejoin="round" opacity="0.78"/>
        <rect x="390" y="72" width="205" height="54" rx="14" fill="rgba(255,255,255,0.055)" stroke="#c084fc" stroke-width="2" opacity="0.95"/>
  <text x="410" y="106" fill="rgba(255,255,255,0.86)" font-size="19" font-weight="700" letter-spacing="0">Instructions</text>
  <rect x="625" y="72" width="205" height="54" rx="14" fill="rgba(255,255,255,0.055)" stroke="#fbbf24" stroke-width="2" opacity="0.95"/>
  <text x="645" y="106" fill="rgba(255,255,255,0.86)" font-size="19" font-weight="700" letter-spacing="0">Permissions</text>
  <rect x="390" y="154" width="205" height="54" rx="14" fill="rgba(255,255,255,0.055)" stroke="#38bdf8" stroke-width="2" opacity="0.95"/>
  <text x="410" y="188" fill="rgba(255,255,255,0.86)" font-size="19" font-weight="700" letter-spacing="0">Tools</text>
  <rect x="625" y="154" width="205" height="54" rx="14" fill="rgba(255,255,255,0.055)" stroke="#4ade80" stroke-width="2" opacity="0.95"/>
  <text x="645" y="188" fill="rgba(255,255,255,0.86)" font-size="19" font-weight="700" letter-spacing="0">Memory</text>
  <rect x="390" y="236" width="205" height="54" rx="14" fill="rgba(255,255,255,0.055)" stroke="#fb7185" stroke-width="2" opacity="0.95"/>
  <text x="410" y="270" fill="rgba(255,255,255,0.86)" font-size="19" font-weight="700" letter-spacing="0">Verification</text>
  
        <line x1="390" y1="99" x2="250" y2="147" stroke="#c084fc" stroke-width="2" stroke-linecap="round" opacity="0.78"/><polyline points="259.9985106390584,134.50881170582093 250,147 265.5595238626242,150.72843360788787" fill="none" stroke="#c084fc" stroke-width="2" stroke-linecap="round" stroke-linejoin="round" opacity="0.78"/><line x1="625" y1="99" x2="250" y2="147" stroke="#fbbf24" stroke-width="2" stroke-linecap="round" opacity="0.78"/><polyline points="262.31142806629344,136.78096193526602 250,147 264.48841321137206,153.7886583811928" fill="none" stroke="#fbbf24" stroke-width="2" stroke-linecap="round" stroke-linejoin="round" opacity="0.78"/><line x1="390" y1="181" x2="250" y2="147" stroke="#38bdf8" stroke-width="2" stroke-linecap="round" opacity="0.78"/><polyline points="265.1509196942392,141.85707938825465 250,147 261.10440155216475,158.51921291444347" fill="none" stroke="#38bdf8" stroke-width="2" stroke-linecap="round" stroke-linejoin="round" opacity="0.78"/><line x1="625" y1="181" x2="250" y2="147" stroke="#4ade80" stroke-width="2" stroke-linecap="round" opacity="0.78"/><polyline points="264.2281915431016,139.6816282266605 250,147 262.67993007599523,156.75804146680426" fill="none" stroke="#4ade80" stroke-width="2" stroke-linecap="round" stroke-linejoin="round" opacity="0.78"/><line x1="390" y1="263" x2="250" y2="147" stroke="#fb7185" stroke-width="2" stroke-linecap="round" opacity="0.78"/><polyline points="265.87228439551563,149.01756984212983 250,147 254.93253823204333,162.22071176356187" fill="none" stroke="#fb7185" stroke-width="2" stroke-linecap="round" stroke-linejoin="round" opacity="0.78"/>
      </g>
</svg>