<svg width="1200" height="630" viewBox="0 0 1200 630" xmlns="http://www.w3.org/2000/svg" role="img" aria-label="AI-assisted code review flow with local checks, continuous integration, and human approval.">
  <style>
    :root { --accent: #f97316; --muted: rgba(255,255,255,0.28); }
    svg { font-family: "DM Sans", Arial, sans-serif; }
  </style>
  <defs>
    <radialGradient id="glow" cx="50%" cy="48%" r="58%">
      <stop offset="0%" stop-color="#f97316" stop-opacity="0.22"/>
      <stop offset="55%" stop-color="#f97316" stop-opacity="0.08"/>
      <stop offset="100%" stop-color="#08111f" stop-opacity="0"/>
    </radialGradient>
    <linearGradient id="edge" x1="0" y1="0" x2="1" y2="1">
      <stop offset="0" stop-color="rgba(255,255,255,0.16)"/>
      <stop offset="1" stop-color="rgba(255,255,255,0.03)"/>
    </linearGradient>
  </defs>
  <rect width="1200" height="630" fill="#08111f"/>
  <rect width="1200" height="630" fill="url(#glow)"/>
  <path d="M0 540 C190 475 330 605 520 535 C720 460 850 520 1200 410 L1200 630 L0 630Z" fill="rgba(255,255,255,0.035)"/>
  <path d="M110 110 H1090 V520" fill="none" stroke="url(#edge)" stroke-width="2"/>
  <text x="110" y="86" fill="#f97316" font-size="24" font-weight="700" letter-spacing="0">AI-Powered Engineering Teams</text>
  <text x="110" y="580" fill="rgba(255,255,255,0.82)" font-size="34" font-weight="700" letter-spacing="0">AI Code Review</text>
  <g transform="translate(100 220)">
        <rect x="0" y="70" width="170" height="72" rx="14" fill="rgba(255,255,255,0.06)" stroke="#94a3b8" stroke-width="2" opacity="0.95"/>
  <text x="20" y="104" fill="rgba(255,255,255,0.86)" font-size="19" font-weight="700" letter-spacing="0">Developer</text>
  <text x="20" y="132" fill="rgba(255,255,255,0.48)" font-size="14" font-weight="600" letter-spacing="0">opens PR</text>
        <line x1="170" y1="106" x2="270" y2="106" stroke="#f97316" stroke-width="4" stroke-linecap="round" opacity="0.78"/><polyline points="256.49075319196777,114.57322871966394 270,106 256.49075319196777,97.42677128033606" fill="none" stroke="#f97316" stroke-width="4" stroke-linecap="round" stroke-linejoin="round" opacity="0.78"/>
        <rect x="270" y="48" width="205" height="116" rx="14" fill="rgba(249,115,22,0.12)" stroke="#f97316" stroke-width="2" opacity="0.95"/>
  <text x="290" y="82" fill="rgba(255,255,255,0.86)" font-size="19" font-weight="700" letter-spacing="0">CI AI Review</text>
  <text x="290" y="110" fill="rgba(255,255,255,0.48)" font-size="14" font-weight="600" letter-spacing="0">summary, risk tags, inline comments</text>
        <line x1="475" y1="106" x2="610" y2="106" stroke="#f97316" stroke-width="4" stroke-linecap="round" opacity="0.78"/><polyline points="596.4907531919678,114.57322871966394 610,106 596.4907531919678,97.42677128033606" fill="none" stroke="#f97316" stroke-width="4" stroke-linecap="round" stroke-linejoin="round" opacity="0.78"/>
        <rect x="610" y="70" width="185" height="72" rx="14" fill="rgba(255,255,255,0.06)" stroke="#60a5fa" stroke-width="2" opacity="0.95"/>
  <text x="630" y="104" fill="rgba(255,255,255,0.86)" font-size="19" font-weight="700" letter-spacing="0">Human Review</text>
  <text x="630" y="132" fill="rgba(255,255,255,0.48)" font-size="14" font-weight="600" letter-spacing="0">intent + design</text>
        <line x1="795" y1="106" x2="910" y2="106" stroke="#4ade80" stroke-width="4" stroke-linecap="round" opacity="0.78"/><polyline points="896.4907531919678,114.57322871966394 910,106 896.4907531919678,97.42677128033606" fill="none" stroke="#4ade80" stroke-width="4" stroke-linecap="round" stroke-linejoin="round" opacity="0.78"/>
        <rect x="910" y="70" width="115" height="72" rx="14" fill="rgba(255,255,255,0.06)" stroke="#4ade80" stroke-width="2" opacity="0.95"/>
  <text x="930" y="104" fill="rgba(255,255,255,0.86)" font-size="19" font-weight="700" letter-spacing="0">Merge</text>
  
        <rect x="330" y="210" width="300" height="70" rx="14" fill="rgba(255,255,255,0.055)" stroke="rgba(255,255,255,0.16)" stroke-width="2"/>
        <text x="355" y="250" fill="rgba(255,255,255,0.78)" font-size="20" font-weight="700" letter-spacing="0">AI handles surface area</text>
        <text x="700" y="250" fill="rgba(255,255,255,0.78)" font-size="20" font-weight="700" letter-spacing="0">Humans own risk</text>
      </g>
</svg>