<svg width="1200" height="630" viewBox="0 0 1200 630" xmlns="http://www.w3.org/2000/svg" role="img" aria-label="AI code quality loop showing how unclear architecture creates review drag and how structure creates leverage.">
  <style>
    :root { --accent: #f43f5e; --muted: rgba(255,255,255,0.28); }
    svg { font-family: "DM Sans", Arial, sans-serif; }
  </style>
  <defs>
    <radialGradient id="glow" cx="50%" cy="48%" r="58%">
      <stop offset="0%" stop-color="#f43f5e" stop-opacity="0.22"/>
      <stop offset="55%" stop-color="#f43f5e" stop-opacity="0.08"/>
      <stop offset="100%" stop-color="#08111f" stop-opacity="0"/>
    </radialGradient>
    <linearGradient id="edge" x1="0" y1="0" x2="1" y2="1">
      <stop offset="0" stop-color="rgba(255,255,255,0.16)"/>
      <stop offset="1" stop-color="rgba(255,255,255,0.03)"/>
    </linearGradient>
  </defs>
  <rect width="1200" height="630" fill="#08111f"/>
  <rect width="1200" height="630" fill="url(#glow)"/>
  <path d="M0 540 C190 475 330 605 520 535 C720 460 850 520 1200 410 L1200 630 L0 630Z" fill="rgba(255,255,255,0.035)"/>
  <path d="M110 110 H1090 V520" fill="none" stroke="url(#edge)" stroke-width="2"/>
  <text x="110" y="86" fill="#f43f5e" font-size="24" font-weight="700" letter-spacing="0">AI-Powered Engineering Teams</text>
  <text x="110" y="580" fill="rgba(255,255,255,0.82)" font-size="34" font-weight="700" letter-spacing="0">Bad Code Is an AI Tax</text>
  <g transform="translate(95 195)">
        <rect x="0" y="0" width="440" height="310" rx="18" fill="rgba(244,63,94,0.08)" stroke="#f43f5e" stroke-width="2"/>
        <text x="35" y="38" fill="#fda4af" font-size="22" font-weight="700" letter-spacing="0">Tax Loop</text>
        <text x="35" y="60" fill="#fb7185" font-size="16" font-weight="700" letter-spacing="0">speed becomes drag</text>
        <rect x="50" y="82" width="170" height="50" rx="14" fill="rgba(255,255,255,0.06)" stroke="#f43f5e" stroke-width="2" opacity="0.95"/>
  <text x="70" y="116" fill="rgba(255,255,255,0.86)" font-size="19" font-weight="700" letter-spacing="0">Unclear arch.</text>
  
        <rect x="250" y="82" width="150" height="50" rx="14" fill="rgba(255,255,255,0.06)" stroke="#f43f5e" stroke-width="2" opacity="0.95"/>
  <text x="270" y="116" fill="rgba(255,255,255,0.86)" font-size="19" font-weight="700" letter-spacing="0">Larger diffs</text>
  
        <rect x="250" y="168" width="165" height="50" rx="14" fill="rgba(255,255,255,0.06)" stroke="#f43f5e" stroke-width="2" opacity="0.95"/>
  <text x="270" y="202" fill="rgba(255,255,255,0.86)" font-size="19" font-weight="700" letter-spacing="0">Slower review</text>
  
        <rect x="50" y="168" width="160" height="50" rx="14" fill="rgba(255,255,255,0.06)" stroke="#f43f5e" stroke-width="2" opacity="0.95"/>
  <text x="70" y="202" fill="rgba(255,255,255,0.86)" font-size="19" font-weight="700" letter-spacing="0">Lower trust</text>
  
        <line x1="220" y1="107" x2="250" y2="107" stroke="#f43f5e" stroke-width="3" stroke-linecap="round" opacity="0.78"/><polyline points="236.49075319196777,115.57322871966394 250,107 236.49075319196777,98.42677128033606" fill="none" stroke="#f43f5e" stroke-width="3" stroke-linecap="round" stroke-linejoin="round" opacity="0.78"/>
        <line x1="325" y1="132" x2="325" y2="168" stroke="#f43f5e" stroke-width="3" stroke-linecap="round" opacity="0.78"/><polyline points="316.426771280336,154.49075319196777 325,168 333.573228719664,154.49075319196777" fill="none" stroke="#f43f5e" stroke-width="3" stroke-linecap="round" stroke-linejoin="round" opacity="0.78"/>
        <line x1="250" y1="193" x2="210" y2="193" stroke="#f43f5e" stroke-width="3" stroke-linecap="round" opacity="0.78"/><polyline points="223.50924680803223,184.42677128033606 210,193 223.50924680803223,201.57322871966394" fill="none" stroke="#f43f5e" stroke-width="3" stroke-linecap="round" stroke-linejoin="round" opacity="0.78"/>
        <line x1="130" y1="168" x2="130" y2="132" stroke="#f43f5e" stroke-width="3" stroke-linecap="round" opacity="0.78"/><polyline points="138.57322871966394,145.50924680803223 130,132 121.42677128033604,145.50924680803223" fill="none" stroke="#f43f5e" stroke-width="3" stroke-linecap="round" stroke-linejoin="round" opacity="0.78"/>
        <rect x="560" y="0" width="440" height="310" rx="18" fill="rgba(74,222,128,0.08)" stroke="#4ade80" stroke-width="2"/>
        <text x="595" y="38" fill="#bbf7d0" font-size="22" font-weight="700" letter-spacing="0">Counter-Loop</text>
        <text x="595" y="60" fill="#86efac" font-size="16" font-weight="700" letter-spacing="0">structure creates leverage</text>
        <rect x="610" y="82" width="180" height="50" rx="14" fill="rgba(255,255,255,0.06)" stroke="#4ade80" stroke-width="2" opacity="0.95"/>
  <text x="630" y="116" fill="rgba(255,255,255,0.86)" font-size="19" font-weight="700" letter-spacing="0">Shared intent</text>
  
        <rect x="810" y="82" width="160" height="50" rx="14" fill="rgba(255,255,255,0.06)" stroke="#4ade80" stroke-width="2" opacity="0.95"/>
  <text x="830" y="116" fill="rgba(255,255,255,0.86)" font-size="19" font-weight="700" letter-spacing="0">Smaller diffs</text>
  
        <rect x="810" y="168" width="175" height="50" rx="14" fill="rgba(255,255,255,0.06)" stroke="#4ade80" stroke-width="2" opacity="0.95"/>
  <text x="830" y="202" fill="rgba(255,255,255,0.86)" font-size="19" font-weight="700" letter-spacing="0">Faster feedback</text>
  
        <rect x="610" y="168" width="175" height="50" rx="14" fill="rgba(255,255,255,0.06)" stroke="#4ade80" stroke-width="2" opacity="0.95"/>
  <text x="630" y="202" fill="rgba(255,255,255,0.86)" font-size="19" font-weight="700" letter-spacing="0">Safer delegation</text>
  
        <line x1="790" y1="107" x2="810" y2="107" stroke="#4ade80" stroke-width="3" stroke-linecap="round" opacity="0.78"/><polyline points="796.4907531919678,115.57322871966394 810,107 796.4907531919678,98.42677128033606" fill="none" stroke="#4ade80" stroke-width="3" stroke-linecap="round" stroke-linejoin="round" opacity="0.78"/>
        <line x1="890" y1="132" x2="890" y2="168" stroke="#4ade80" stroke-width="3" stroke-linecap="round" opacity="0.78"/><polyline points="881.4267712803361,154.49075319196777 890,168 898.5732287196639,154.49075319196777" fill="none" stroke="#4ade80" stroke-width="3" stroke-linecap="round" stroke-linejoin="round" opacity="0.78"/>
        <line x1="810" y1="193" x2="785" y2="193" stroke="#4ade80" stroke-width="3" stroke-linecap="round" opacity="0.78"/><polyline points="798.5092468080322,184.42677128033606 785,193 798.5092468080322,201.57322871966394" fill="none" stroke="#4ade80" stroke-width="3" stroke-linecap="round" stroke-linejoin="round" opacity="0.78"/>
        <line x1="700" y1="168" x2="700" y2="132" stroke="#4ade80" stroke-width="3" stroke-linecap="round" opacity="0.78"/><polyline points="708.5732287196639,145.50924680803223 700,132 691.4267712803361,145.50924680803223" fill="none" stroke="#4ade80" stroke-width="3" stroke-linecap="round" stroke-linejoin="round" opacity="0.78"/>
        <line x1="440" y1="155" x2="560" y2="155" stroke="rgba(255,255,255,0.3)" stroke-width="5" stroke-linecap="round" opacity="0.78"/><polyline points="546.4907531919678,163.57322871966394 560,155 546.4907531919678,146.42677128033606" fill="none" stroke="rgba(255,255,255,0.3)" stroke-width="5" stroke-linecap="round" stroke-linejoin="round" opacity="0.78"/>
      </g>
</svg>