<svg width="1200" height="630" viewBox="0 0 1200 630" xmlns="http://www.w3.org/2000/svg" role="img" aria-label="Changing AI landscape visual showing shifting layers of tools, teams, governance, and workflows.">
  <style>
    :root { --accent: #c084fc; --muted: rgba(255,255,255,0.28); }
    svg { font-family: "DM Sans", Arial, sans-serif; }
  </style>
  <defs>
    <radialGradient id="glow" cx="50%" cy="48%" r="58%">
      <stop offset="0%" stop-color="#c084fc" stop-opacity="0.22"/>
      <stop offset="55%" stop-color="#c084fc" stop-opacity="0.08"/>
      <stop offset="100%" stop-color="#08111f" stop-opacity="0"/>
    </radialGradient>
    <linearGradient id="edge" x1="0" y1="0" x2="1" y2="1">
      <stop offset="0" stop-color="rgba(255,255,255,0.16)"/>
      <stop offset="1" stop-color="rgba(255,255,255,0.03)"/>
    </linearGradient>
  </defs>
  <rect width="1200" height="630" fill="#08111f"/>
  <rect width="1200" height="630" fill="url(#glow)"/>
  <path d="M0 540 C190 475 330 605 520 535 C720 460 850 520 1200 410 L1200 630 L0 630Z" fill="rgba(255,255,255,0.035)"/>
  <path d="M110 110 H1090 V520" fill="none" stroke="url(#edge)" stroke-width="2"/>
  <text x="110" y="86" fill="#c084fc" font-size="24" font-weight="700" letter-spacing="0">AI-Powered Engineering Teams</text>
  <text x="110" y="580" fill="rgba(255,255,255,0.82)" font-size="34" font-weight="700" letter-spacing="0">AI Landscape</text>
  <rect x="240" y="310" width="300" height="250" rx="18" fill="rgba(255,255,255,0.055)" stroke="rgba(255,255,255,0.16)" stroke-width="2" /><rect x="800" y="310" width="300" height="250" rx="18" fill="rgba(255,255,255,0.055)" stroke="rgba(255,255,255,0.16)" stroke-width="2" /><path d="M590 435 L750 435" stroke="var(--accent)" stroke-width="10" stroke-linecap="round"/><path d="M715 390 L760 435 L715 480" fill="none" stroke="var(--accent)" stroke-width="10" stroke-linecap="round" stroke-linejoin="round"/><circle cx="390" cy="435" r="34" fill="var(--accent)" opacity="0.95"/><circle cx="895" cy="390" r="24" fill="var(--accent)" opacity="0.95"/><circle cx="960" cy="480" r="24" fill="var(--accent)" opacity="0.95"/><line x1="895" y1="390" x2="960" y2="480" stroke="var(--muted)" stroke-width="4" stroke-linecap="round" opacity="0.75"/>
</svg>