<svg width="1200" height="630" viewBox="0 0 1200 630" xmlns="http://www.w3.org/2000/svg" role="img" aria-label="Context engineering cover showing layered project context feeding an AI coding assistant.">
  <style>
    :root { --accent: #818cf8; --muted: rgba(255,255,255,0.28); }
    svg { font-family: "DM Sans", Arial, sans-serif; }
  </style>
  <defs>
    <radialGradient id="glow" cx="50%" cy="48%" r="58%">
      <stop offset="0%" stop-color="#818cf8" stop-opacity="0.22"/>
      <stop offset="55%" stop-color="#818cf8" stop-opacity="0.08"/>
      <stop offset="100%" stop-color="#08111f" stop-opacity="0"/>
    </radialGradient>
    <linearGradient id="edge" x1="0" y1="0" x2="1" y2="1">
      <stop offset="0" stop-color="rgba(255,255,255,0.16)"/>
      <stop offset="1" stop-color="rgba(255,255,255,0.03)"/>
    </linearGradient>
  </defs>
  <rect width="1200" height="630" fill="#08111f"/>
  <rect width="1200" height="630" fill="url(#glow)"/>
  <path d="M0 540 C190 475 330 605 520 535 C720 460 850 520 1200 410 L1200 630 L0 630Z" fill="rgba(255,255,255,0.035)"/>
  <path d="M110 110 H1090 V520" fill="none" stroke="url(#edge)" stroke-width="2"/>
  <text x="110" y="86" fill="#818cf8" font-size="24" font-weight="700" letter-spacing="0">AI Agents in Practice</text>
  <text x="110" y="580" fill="rgba(255,255,255,0.82)" font-size="34" font-weight="700" letter-spacing="0">Context Engineering</text>
  <g transform="translate(185 196)">
        <rect x="0" y="0" width="190" height="76" rx="14" fill="rgba(255,255,255,0.06)" stroke="#818cf8" stroke-width="2" opacity="0.95"/>
  <text x="20" y="34" fill="rgba(255,255,255,0.86)" font-size="19" font-weight="700" letter-spacing="0">Instructions</text>
  <text x="20" y="62" fill="rgba(255,255,255,0.48)" font-size="14" font-weight="600" letter-spacing="0">CLAUDE.md, rules</text>
        <rect x="0" y="104" width="190" height="76" rx="14" fill="rgba(255,255,255,0.06)" stroke="#60a5fa" stroke-width="2" opacity="0.95"/>
  <text x="20" y="138" fill="rgba(255,255,255,0.86)" font-size="19" font-weight="700" letter-spacing="0">Codebase Shape</text>
  <text x="20" y="166" fill="rgba(255,255,255,0.48)" font-size="14" font-weight="600" letter-spacing="0">folders, ownership</text>
        <rect x="0" y="208" width="190" height="76" rx="14" fill="rgba(255,255,255,0.06)" stroke="#2dd4bf" stroke-width="2" opacity="0.95"/>
  <text x="20" y="242" fill="rgba(255,255,255,0.86)" font-size="19" font-weight="700" letter-spacing="0">Evidence</text>
  <text x="20" y="270" fill="rgba(255,255,255,0.48)" font-size="14" font-weight="600" letter-spacing="0">tests, docs, traces</text>
        <line x1="190" y1="38" x2="405" y2="142" stroke="#818cf8" stroke-width="3" stroke-linecap="round" opacity="0.78"/><polyline points="389.1055860435229,143.83510353390403 405,142 396.57203636421684,128.39965335170032" fill="none" stroke="#818cf8" stroke-width="3" stroke-linecap="round" stroke-linejoin="round" opacity="0.78"/>
        <line x1="190" y1="142" x2="405" y2="142" stroke="#60a5fa" stroke-width="3" stroke-linecap="round" opacity="0.78"/><polyline points="391.49075319196777,150.57322871966394 405,142 391.49075319196777,133.42677128033606" fill="none" stroke="#60a5fa" stroke-width="3" stroke-linecap="round" stroke-linejoin="round" opacity="0.78"/>
        <line x1="190" y1="246" x2="405" y2="142" stroke="#2dd4bf" stroke-width="3" stroke-linecap="round" opacity="0.78"/><polyline points="396.57203636421684,155.60034664829968 405,142 389.1055860435229,140.16489646609597" fill="none" stroke="#2dd4bf" stroke-width="3" stroke-linecap="round" stroke-linejoin="round" opacity="0.78"/>
        <rect x="405" y="72" width="210" height="140" rx="18" fill="rgba(129,140,248,0.16)" stroke="#818cf8" stroke-width="3"/>
        <text x="442" y="128" fill="rgba(255,255,255,0.78)" font-size="24" font-weight="700" letter-spacing="0">Context Pack</text>
        <text x="445" y="158" fill="rgba(255,255,255,0.5)" font-size="15" font-weight="600" letter-spacing="0">what the model sees</text>
        <line x1="615" y1="142" x2="760" y2="142" stroke="#818cf8" stroke-width="5" stroke-linecap="round" opacity="0.78"/><polyline points="746.4907531919678,150.57322871966394 760,142 746.4907531919678,133.42677128033606" fill="none" stroke="#818cf8" stroke-width="5" stroke-linecap="round" stroke-linejoin="round" opacity="0.78"/>
        <rect x="760" y="62" width="205" height="160" rx="14" fill="rgba(56,189,248,0.1)" stroke="#38bdf8" stroke-width="2" opacity="0.95"/>
  <text x="780" y="96" fill="rgba(255,255,255,0.86)" font-size="19" font-weight="700" letter-spacing="0">Coding Agent</text>
  <text x="780" y="124" fill="rgba(255,255,255,0.48)" font-size="14" font-weight="600" letter-spacing="0">smaller prompt, better output</text>
        <path d="M800 178 L925 178 M800 202 L890 202" stroke="#38bdf8" stroke-width="6" stroke-linecap="round" opacity="0.75"/>
      </g>
</svg>