<svg width="1200" height="630" viewBox="0 0 1200 630" xmlns="http://www.w3.org/2000/svg" role="img" aria-label="No-code CRM integration loop that normalizes a lead, upserts the CRM by email, triggers follow-up, and writes the CRM ID back.">
  <style>
    :root { --accent: #fb7185; --muted: rgba(255,255,255,0.28); }
    svg { font-family: "DM Sans", Arial, sans-serif; }
  </style>
  <defs>
    <radialGradient id="glow" cx="50%" cy="48%" r="58%">
      <stop offset="0%" stop-color="#fb7185" stop-opacity="0.22"/>
      <stop offset="55%" stop-color="#fb7185" stop-opacity="0.08"/>
      <stop offset="100%" stop-color="#08111f" stop-opacity="0"/>
    </radialGradient>
    <linearGradient id="edge" x1="0" y1="0" x2="1" y2="1">
      <stop offset="0" stop-color="rgba(255,255,255,0.16)"/>
      <stop offset="1" stop-color="rgba(255,255,255,0.03)"/>
    </linearGradient>
  </defs>
  <rect width="1200" height="630" fill="#08111f"/>
  <rect width="1200" height="630" fill="url(#glow)"/>
  <path d="M0 540 C190 475 330 605 520 535 C720 460 850 520 1200 410 L1200 630 L0 630Z" fill="rgba(255,255,255,0.035)"/>
  <path d="M110 110 H1090 V520" fill="none" stroke="url(#edge)" stroke-width="2"/>
  <text x="110" y="86" fill="#fb7185" font-size="24" font-weight="700" letter-spacing="0">Automation Architecture</text>
  <text x="110" y="580" fill="rgba(255,255,255,0.82)" font-size="34" font-weight="700" letter-spacing="0">CRM Integration</text>
  <g transform="translate(105 184)">
        <rect x="0" y="76" width="170" height="76" rx="14" fill="rgba(255,255,255,0.06)" stroke="#94a3b8" stroke-width="2" opacity="0.95"/>
  <text x="20" y="110" fill="rgba(255,255,255,0.86)" font-size="19" font-weight="700" letter-spacing="0">Lead Form</text>
  <text x="20" y="138" fill="rgba(255,255,255,0.48)" font-size="14" font-weight="600" letter-spacing="0">new contact</text>
        <line x1="170" y1="114" x2="250" y2="114" stroke="#fb7185" stroke-width="4" stroke-linecap="round" opacity="0.78"/><polyline points="236.49075319196777,122.57322871966394 250,114 236.49075319196777,105.42677128033606" fill="none" stroke="#fb7185" stroke-width="4" stroke-linecap="round" stroke-linejoin="round" opacity="0.78"/>
        <rect x="250" y="76" width="190" height="76" rx="14" fill="rgba(255,255,255,0.06)" stroke="#fbbf24" stroke-width="2" opacity="0.95"/>
  <text x="270" y="110" fill="rgba(255,255,255,0.86)" font-size="19" font-weight="700" letter-spacing="0">Normalize</text>
  <text x="270" y="138" fill="rgba(255,255,255,0.48)" font-size="14" font-weight="600" letter-spacing="0">email / phone / fields</text>
        <line x1="440" y1="114" x2="520" y2="114" stroke="#fb7185" stroke-width="4" stroke-linecap="round" opacity="0.78"/><polyline points="506.49075319196777,122.57322871966394 520,114 506.49075319196777,105.42677128033606" fill="none" stroke="#fb7185" stroke-width="4" stroke-linecap="round" stroke-linejoin="round" opacity="0.78"/>
        <rect x="520" y="32" width="245" height="164" rx="20" fill="rgba(251,113,133,0.14)" stroke="#fb7185" stroke-width="3"/>
        <text x="585" y="76" fill="#fecdd3" font-size="23" font-weight="700" letter-spacing="0">CRM UPSERT</text>
        <text x="562" y="112" fill="rgba(255,255,255,0.72)" font-size="17" font-weight="700" letter-spacing="0">find by email</text>
        <path d="M560 132 H725" stroke="rgba(255,255,255,0.2)" stroke-width="2"/>
        <text x="562" y="162" fill="rgba(255,255,255,0.88)" font-size="17" font-weight="700" letter-spacing="0">update or create</text>
        <line x1="765" y1="114" x2="845" y2="114" stroke="#fb7185" stroke-width="4" stroke-linecap="round" opacity="0.78"/><polyline points="831.4907531919678,122.57322871966394 845,114 831.4907531919678,105.42677128033606" fill="none" stroke="#fb7185" stroke-width="4" stroke-linecap="round" stroke-linejoin="round" opacity="0.78"/>
        <rect x="845" y="76" width="170" height="76" rx="14" fill="rgba(255,255,255,0.06)" stroke="#4ade80" stroke-width="2" opacity="0.95"/>
  <text x="865" y="110" fill="rgba(255,255,255,0.86)" font-size="19" font-weight="700" letter-spacing="0">Follow-Up</text>
  <text x="865" y="138" fill="rgba(255,255,255,0.48)" font-size="14" font-weight="600" letter-spacing="0">task + notification</text>
        <path d="M930 152 V318 H642 V196" fill="none" stroke="#60a5fa" stroke-width="4" stroke-linecap="round" stroke-linejoin="round"/>
        <polyline points="630,210 642,196 654,210" fill="none" stroke="#60a5fa" stroke-width="4" stroke-linecap="round" stroke-linejoin="round"/>
        <rect x="300" y="226" width="375" height="64" rx="14" fill="rgba(96,165,250,0.1)" stroke="#60a5fa" stroke-width="2"/>
        <text x="332" y="254" fill="#bfdbfe" font-size="20" font-weight="700" letter-spacing="0">Write CRM ID back</text>
        <text x="332" y="277" fill="#93c5fd" font-size="16" font-weight="700" letter-spacing="0">prevents duplicates and makes retries safe</text>
      </g>
</svg>