<svg width="1200" height="630" viewBox="0 0 1200 630" xmlns="http://www.w3.org/2000/svg" role="img" aria-label="DOE framework and Claude Skills visual showing orchestration layers for agent workflows.">
  <style>
    :root { --accent: #c084fc; --muted: rgba(255,255,255,0.28); }
    svg { font-family: "DM Sans", Arial, sans-serif; }
  </style>
  <defs>
    <radialGradient id="glow" cx="50%" cy="48%" r="58%">
      <stop offset="0%" stop-color="#c084fc" stop-opacity="0.22"/>
      <stop offset="55%" stop-color="#c084fc" stop-opacity="0.08"/>
      <stop offset="100%" stop-color="#08111f" stop-opacity="0"/>
    </radialGradient>
    <linearGradient id="edge" x1="0" y1="0" x2="1" y2="1">
      <stop offset="0" stop-color="rgba(255,255,255,0.16)"/>
      <stop offset="1" stop-color="rgba(255,255,255,0.03)"/>
    </linearGradient>
  </defs>
  <rect width="1200" height="630" fill="#08111f"/>
  <rect width="1200" height="630" fill="url(#glow)"/>
  <path d="M0 540 C190 475 330 605 520 535 C720 460 850 520 1200 410 L1200 630 L0 630Z" fill="rgba(255,255,255,0.035)"/>
  <path d="M110 110 H1090 V520" fill="none" stroke="url(#edge)" stroke-width="2"/>
  <text x="110" y="86" fill="#c084fc" font-size="24" font-weight="700" letter-spacing="0">AI Agents in Practice</text>
  <text x="110" y="580" fill="rgba(255,255,255,0.82)" font-size="34" font-weight="700" letter-spacing="0">DOE and Skills</text>
  <g transform="translate(170 185)">
        <rect x="0" y="34" width="210" height="76" rx="14" fill="rgba(255,255,255,0.06)" stroke="#c084fc" stroke-width="2" opacity="0.95"/>
  <text x="20" y="68" fill="rgba(255,255,255,0.86)" font-size="19" font-weight="700" letter-spacing="0">Directive</text>
  <text x="20" y="96" fill="rgba(255,255,255,0.48)" font-size="14" font-weight="600" letter-spacing="0">skills, prompts, SOPs</text>
        <rect x="0" y="144" width="210" height="76" rx="14" fill="rgba(255,255,255,0.06)" stroke="#60a5fa" stroke-width="2" opacity="0.95"/>
  <text x="20" y="178" fill="rgba(255,255,255,0.86)" font-size="19" font-weight="700" letter-spacing="0">Orchestration</text>
  <text x="20" y="206" fill="rgba(255,255,255,0.48)" font-size="14" font-weight="600" letter-spacing="0">agents, routing, state</text>
        <rect x="0" y="254" width="210" height="76" rx="14" fill="rgba(255,255,255,0.06)" stroke="#4ade80" stroke-width="2" opacity="0.95"/>
  <text x="20" y="288" fill="rgba(255,255,255,0.86)" font-size="19" font-weight="700" letter-spacing="0">Execution</text>
  <text x="20" y="316" fill="rgba(255,255,255,0.48)" font-size="14" font-weight="600" letter-spacing="0">tools, scripts, APIs</text>
        <line x1="210" y1="72" x2="440" y2="72" stroke="#c084fc" stroke-width="3" stroke-linecap="round" opacity="0.78"/><polyline points="426.49075319196777,80.57322871966394 440,72 426.49075319196777,63.42677128033605" fill="none" stroke="#c084fc" stroke-width="3" stroke-linecap="round" stroke-linejoin="round" opacity="0.78"/>
        <line x1="210" y1="182" x2="440" y2="182" stroke="#60a5fa" stroke-width="3" stroke-linecap="round" opacity="0.78"/><polyline points="426.49075319196777,190.57322871966394 440,182 426.49075319196777,173.42677128033606" fill="none" stroke="#60a5fa" stroke-width="3" stroke-linecap="round" stroke-linejoin="round" opacity="0.78"/>
        <line x1="210" y1="292" x2="440" y2="292" stroke="#4ade80" stroke-width="3" stroke-linecap="round" opacity="0.78"/><polyline points="426.49075319196777,300.573228719664 440,292 426.49075319196777,283.426771280336" fill="none" stroke="#4ade80" stroke-width="3" stroke-linecap="round" stroke-linejoin="round" opacity="0.78"/>
        <rect x="440" y="18" width="230" height="300" rx="18" fill="rgba(255,255,255,0.055)" stroke="rgba(255,255,255,0.16)" stroke-width="2"/>
        <text x="496" y="82" fill="rgba(255,255,255,0.78)" font-size="25" font-weight="700" letter-spacing="0">Claude Code</text>
        <text x="500" y="125" fill="rgba(255,255,255,0.5)" font-size="16" font-weight="700" letter-spacing="0">local harness</text>
        <text x="500" y="186" fill="rgba(255,255,255,0.78)" font-size="25" font-weight="700" letter-spacing="0">Chat</text>
        <text x="500" y="229" fill="rgba(255,255,255,0.5)" font-size="16" font-weight="700" letter-spacing="0">throwaway thinking</text>
        <text x="500" y="290" fill="rgba(255,255,255,0.78)" font-size="25" font-weight="700" letter-spacing="0">Cowork</text>
        <rect x="745" y="112" width="210" height="112" rx="14" fill="rgba(251,191,36,0.1)" stroke="#fbbf24" stroke-width="2" opacity="0.95"/>
  <text x="765" y="146" fill="rgba(255,255,255,0.86)" font-size="19" font-weight="700" letter-spacing="0">Outer Loop</text>
  <text x="765" y="174" fill="rgba(255,255,255,0.48)" font-size="14" font-weight="600" letter-spacing="0">audits, memory, changelog</text>
        <line x1="670" y1="168" x2="745" y2="168" stroke="#fbbf24" stroke-width="4" stroke-linecap="round" opacity="0.78"/><polyline points="731.4907531919678,176.57322871966394 745,168 731.4907531919678,159.42677128033606" fill="none" stroke="#fbbf24" stroke-width="4" stroke-linecap="round" stroke-linejoin="round" opacity="0.78"/>
      </g>
</svg>