<svg width="1200" height="630" viewBox="0 0 1200 630" xmlns="http://www.w3.org/2000/svg" role="img" aria-label="Enterprise AI delivery path requiring proposal, human review, tests, security checks, and an audit trail before execution.">
  <style>
    :root { --accent: #2dd4bf; --muted: rgba(255,255,255,0.28); }
    svg { font-family: "DM Sans", Arial, sans-serif; }
  </style>
  <defs>
    <radialGradient id="glow" cx="50%" cy="48%" r="58%">
      <stop offset="0%" stop-color="#2dd4bf" stop-opacity="0.22"/>
      <stop offset="55%" stop-color="#2dd4bf" stop-opacity="0.08"/>
      <stop offset="100%" stop-color="#08111f" stop-opacity="0"/>
    </radialGradient>
    <linearGradient id="edge" x1="0" y1="0" x2="1" y2="1">
      <stop offset="0" stop-color="rgba(255,255,255,0.16)"/>
      <stop offset="1" stop-color="rgba(255,255,255,0.03)"/>
    </linearGradient>
  </defs>
  <rect width="1200" height="630" fill="#08111f"/>
  <rect width="1200" height="630" fill="url(#glow)"/>
  <path d="M0 540 C190 475 330 605 520 535 C720 460 850 520 1200 410 L1200 630 L0 630Z" fill="rgba(255,255,255,0.035)"/>
  <path d="M110 110 H1090 V520" fill="none" stroke="url(#edge)" stroke-width="2"/>
  <text x="110" y="86" fill="#2dd4bf" font-size="24" font-weight="700" letter-spacing="0">AI-Powered Engineering Teams</text>
  <text x="110" y="580" fill="rgba(255,255,255,0.82)" font-size="34" font-weight="700" letter-spacing="0">Enterprise AI Practices</text>
  <g transform="translate(135 178)">
        <rect x="0" y="0" width="930" height="330" rx="20" fill="rgba(45,212,191,0.06)" stroke="#2dd4bf" stroke-width="2"/>
        <rect x="35" y="28" width="860" height="48" rx="12" fill="rgba(45,212,191,0.12)" stroke="rgba(45,212,191,0.5)" stroke-width="2"/>
        <text x="70" y="59" fill="#99f6e4" font-size="18" font-weight="700" letter-spacing="0">APPROVED CONTEXT + POLICY</text>
        <text x="625" y="59" fill="#99f6e4" font-size="16" font-weight="700" letter-spacing="0">scope / permissions / source files</text>
        <rect x="55" y="120" width="205" height="82" rx="14" fill="rgba(255,255,255,0.06)" stroke="#60a5fa" stroke-width="2" opacity="0.95"/>
  <text x="75" y="154" fill="rgba(255,255,255,0.86)" font-size="19" font-weight="700" letter-spacing="0">1. Ask</text>
  <text x="75" y="182" fill="rgba(255,255,255,0.48)" font-size="14" font-weight="600" letter-spacing="0">proposal only</text>
        <line x1="260" y1="161" x2="365" y2="161" stroke="#2dd4bf" stroke-width="4" stroke-linecap="round" opacity="0.78"/><polyline points="351.49075319196777,169.57322871966394 365,161 351.49075319196777,152.42677128033606" fill="none" stroke="#2dd4bf" stroke-width="4" stroke-linecap="round" stroke-linejoin="round" opacity="0.78"/>
        <rect x="365" y="106" width="220" height="110" rx="14" fill="rgba(251,191,36,0.1)" stroke="#fbbf24" stroke-width="2" opacity="0.95"/>
  <text x="385" y="140" fill="rgba(255,255,255,0.86)" font-size="19" font-weight="700" letter-spacing="0">2. Human Review</text>
  <text x="385" y="168" fill="rgba(255,255,255,0.48)" font-size="14" font-weight="600" letter-spacing="0">scope, risk, intent</text>
        <line x1="585" y1="161" x2="690" y2="161" stroke="#2dd4bf" stroke-width="4" stroke-linecap="round" opacity="0.78"/><polyline points="676.4907531919678,169.57322871966394 690,161 676.4907531919678,152.42677128033606" fill="none" stroke="#2dd4bf" stroke-width="4" stroke-linecap="round" stroke-linejoin="round" opacity="0.78"/>
        <rect x="690" y="120" width="185" height="82" rx="14" fill="rgba(255,255,255,0.06)" stroke="#4ade80" stroke-width="2" opacity="0.95"/>
  <text x="710" y="154" fill="rgba(255,255,255,0.86)" font-size="19" font-weight="700" letter-spacing="0">3. Execute</text>
  <text x="710" y="182" fill="rgba(255,255,255,0.48)" font-size="14" font-weight="600" letter-spacing="0">small, traced diff</text>
        <path d="M158 202 V238 H782 V202" fill="none" stroke="rgba(255,255,255,0.22)" stroke-width="3" stroke-dasharray="8 7"/>
        <rect x="245" y="238" width="440" height="76" rx="14" fill="rgba(45,212,191,0.1)" stroke="#2dd4bf" stroke-width="2" opacity="0.95"/>
  <text x="265" y="272" fill="rgba(255,255,255,0.86)" font-size="19" font-weight="700" letter-spacing="0">Release Gate</text>
  <text x="265" y="300" fill="rgba(255,255,255,0.48)" font-size="14" font-weight="600" letter-spacing="0">tests / security / audit trail</text>
        <path d="M270 106 C310 72 640 72 680 106" fill="none" stroke="#fb7185" stroke-width="3" stroke-dasharray="8 7" opacity="0.8"/>
        <path d="M458 78 L478 98 M478 78 L458 98" stroke="#fb7185" stroke-width="5" stroke-linecap="round"/>
        <text x="385" y="68" fill="#fda4af" font-size="16" font-weight="700" letter-spacing="0">unreviewed autonomy blocked</text>
      </g>
</svg>