<svg width="1200" height="630" viewBox="0 0 1200 630" xmlns="http://www.w3.org/2000/svg" role="img" aria-label="Four-level AI readiness spectrum moving from individual experimentation to governed team adoption.">
  <style>
    :root { --accent: #7dd3fc; --muted: rgba(255,255,255,0.28); }
    svg { font-family: "DM Sans", Arial, sans-serif; }
  </style>
  <defs>
    <radialGradient id="glow" cx="50%" cy="48%" r="58%">
      <stop offset="0%" stop-color="#7dd3fc" stop-opacity="0.22"/>
      <stop offset="55%" stop-color="#7dd3fc" stop-opacity="0.08"/>
      <stop offset="100%" stop-color="#08111f" stop-opacity="0"/>
    </radialGradient>
    <linearGradient id="edge" x1="0" y1="0" x2="1" y2="1">
      <stop offset="0" stop-color="rgba(255,255,255,0.16)"/>
      <stop offset="1" stop-color="rgba(255,255,255,0.03)"/>
    </linearGradient>
  </defs>
  <rect width="1200" height="630" fill="#08111f"/>
  <rect width="1200" height="630" fill="url(#glow)"/>
  <path d="M0 540 C190 475 330 605 520 535 C720 460 850 520 1200 410 L1200 630 L0 630Z" fill="rgba(255,255,255,0.035)"/>
  <path d="M110 110 H1090 V520" fill="none" stroke="url(#edge)" stroke-width="2"/>
  <text x="110" y="86" fill="#7dd3fc" font-size="24" font-weight="700" letter-spacing="0">AI-Powered Engineering Teams</text>
  <text x="110" y="580" fill="rgba(255,255,255,0.82)" font-size="34" font-weight="700" letter-spacing="0">AI Readiness</text>
  <g transform="translate(145 190)">
        <rect x="0" y="0" width="910" height="315" rx="20" fill="rgba(125,211,252,0.06)" stroke="rgba(125,211,252,0.42)" stroke-width="2"/>
        <text x="38" y="42" fill="#bae6fd" font-size="16" font-weight="700" letter-spacing="0">AI READINESS REQUIRES A FOUNDATION</text>
        <rect x="65" y="150" width="170" height="100" rx="14" fill="rgba(255,255,255,0.055)" stroke="#64748b" stroke-width="2"/><circle cx="93" cy="178" r="18" fill="#64748b" opacity="0.95"/><text x="87" y="184" fill="#08111f" font-size="17" font-weight="800" letter-spacing="0">1</text><text x="83" y="218" fill="rgba(255,255,255,0.88)" font-size="18" font-weight="700" letter-spacing="0">Experiment</text><text x="83" y="242" fill="rgba(255,255,255,0.56)" font-size="16" font-weight="700" letter-spacing="0">individual use</text><rect x="265" y="125" width="170" height="125" rx="14" fill="rgba(255,255,255,0.055)" stroke="#60a5fa" stroke-width="2"/><circle cx="293" cy="153" r="18" fill="#60a5fa" opacity="0.95"/><text x="287" y="159" fill="#08111f" font-size="17" font-weight="800" letter-spacing="0">2</text><text x="283" y="193" fill="rgba(255,255,255,0.88)" font-size="18" font-weight="700" letter-spacing="0">Standardize</text><text x="283" y="217" fill="rgba(255,255,255,0.56)" font-size="16" font-weight="700" letter-spacing="0">shared context</text><rect x="465" y="100" width="170" height="150" rx="14" fill="rgba(255,255,255,0.055)" stroke="#2dd4bf" stroke-width="2"/><circle cx="493" cy="128" r="18" fill="#2dd4bf" opacity="0.95"/><text x="487" y="134" fill="#08111f" font-size="17" font-weight="800" letter-spacing="0">3</text><text x="483" y="168" fill="rgba(255,255,255,0.88)" font-size="18" font-weight="700" letter-spacing="0">Measure</text><text x="483" y="192" fill="rgba(255,255,255,0.56)" font-size="16" font-weight="700" letter-spacing="0">owned ROI</text><rect x="665" y="75" width="170" height="175" rx="14" fill="rgba(255,255,255,0.055)" stroke="#7dd3fc" stroke-width="2"/><circle cx="693" cy="103" r="18" fill="#7dd3fc" opacity="0.95"/><text x="687" y="109" fill="#08111f" font-size="17" font-weight="800" letter-spacing="0">4</text><text x="683" y="143" fill="rgba(255,255,255,0.88)" font-size="18" font-weight="700" letter-spacing="0">Govern</text><text x="683" y="167" fill="rgba(255,255,255,0.56)" font-size="16" font-weight="700" letter-spacing="0">multi-team systems</text>
        <line x1="235" y1="195" x2="265" y2="170" stroke="#7dd3fc" stroke-width="3" stroke-linecap="round" opacity="0.78"/><polyline points="260.11035641182104,185.2345457950206 265,170 249.13346184965238,172.0622723204182" fill="none" stroke="#7dd3fc" stroke-width="3" stroke-linecap="round" stroke-linejoin="round" opacity="0.78"/>
        <line x1="435" y1="170" x2="465" y2="145" stroke="#7dd3fc" stroke-width="3" stroke-linecap="round" opacity="0.78"/><polyline points="460.11035641182104,160.2345457950206 465,145 449.13346184965235,147.0622723204182" fill="none" stroke="#7dd3fc" stroke-width="3" stroke-linecap="round" stroke-linejoin="round" opacity="0.78"/>
        <line x1="635" y1="145" x2="665" y2="120" stroke="#7dd3fc" stroke-width="3" stroke-linecap="round" opacity="0.78"/><polyline points="660.110356411821,135.2345457950206 665,120 649.1334618496523,122.0622723204182" fill="none" stroke="#7dd3fc" stroke-width="3" stroke-linecap="round" stroke-linejoin="round" opacity="0.78"/>
        <text x="63" y="288" fill="#94a3b8" font-size="16" font-weight="700" letter-spacing="0">tools alone</text>
        <text x="700" y="288" fill="#bae6fd" font-size="16" font-weight="700" letter-spacing="0">governed adoption</text>
      </g>
</svg>