<svg width="1200" height="630" viewBox="0 0 1200 630" xmlns="http://www.w3.org/2000/svg" role="img" aria-label="Four-level AI readiness spectrum moving from individual experimentation to governed team adoption.">
  <style>
    :root { --accent: #7dd3fc; --muted: rgba(255,255,255,0.28); }
    svg { font-family: "DM Sans", Arial, sans-serif; }
  </style>
  <defs>
    <radialGradient id="glow" cx="50%" cy="48%" r="58%">
      <stop offset="0%" stop-color="#7dd3fc" stop-opacity="0.22"/>
      <stop offset="55%" stop-color="#7dd3fc" stop-opacity="0.08"/>
      <stop offset="100%" stop-color="#08111f" stop-opacity="0"/>
    </radialGradient>
    <linearGradient id="edge" x1="0" y1="0" x2="1" y2="1">
      <stop offset="0" stop-color="rgba(255,255,255,0.16)"/>
      <stop offset="1" stop-color="rgba(255,255,255,0.03)"/>
    </linearGradient>
  </defs>
  <rect width="1200" height="630" fill="#08111f"/>
  <rect width="1200" height="630" fill="url(#glow)"/>
  <path d="M0 540 C190 475 330 605 520 535 C720 460 850 520 1200 410 L1200 630 L0 630Z" fill="rgba(255,255,255,0.035)"/>
  <path d="M110 110 H1090 V520" fill="none" stroke="url(#edge)" stroke-width="2"/>
  <text x="110" y="86" fill="#7dd3fc" font-size="24" font-weight="700" letter-spacing="0">AI-Powered Engineering Teams</text>
  <text x="110" y="580" fill="rgba(255,255,255,0.82)" font-size="34" font-weight="700" letter-spacing="0">AI Readiness</text>
  <rect x="245" y="290" width="850" height="250" rx="18" fill="rgba(255,255,255,0.055)" stroke="rgba(255,255,255,0.16)" stroke-width="2" /><line x1="360" y1="425" x2="500" y2="425" stroke="var(--muted)" stroke-width="4" stroke-linecap="round" opacity="0.75"/><circle cx="330" cy="425" r="32" fill="var(--accent)" opacity="0.95"/><line x1="530" y1="425" x2="670" y2="425" stroke="var(--muted)" stroke-width="4" stroke-linecap="round" opacity="0.75"/><circle cx="500" cy="425" r="32" fill="var(--accent)" opacity="0.95"/><line x1="700" y1="425" x2="840" y2="425" stroke="var(--muted)" stroke-width="4" stroke-linecap="round" opacity="0.75"/><circle cx="670" cy="425" r="32" fill="var(--accent)" opacity="0.95"/><line x1="870" y1="425" x2="1010" y2="425" stroke="var(--muted)" stroke-width="4" stroke-linecap="round" opacity="0.75"/><circle cx="840" cy="425" r="32" fill="var(--accent)" opacity="0.95"/><path d="M330 500 C470 360 640 360 780 500 S1010 640 1120 470" fill="none" stroke="var(--accent)" stroke-width="6" opacity="0.8"/>
</svg>