<svg width="1200" height="630" viewBox="0 0 1200 630" xmlns="http://www.w3.org/2000/svg" role="img" aria-label="AI coding integration guarded by conventions, review, and architecture boundaries.">
  <style>
    :root { --accent: #22d3ee; --muted: rgba(255,255,255,0.28); }
    svg { font-family: "DM Sans", Arial, sans-serif; }
  </style>
  <defs>
    <radialGradient id="glow" cx="50%" cy="48%" r="58%">
      <stop offset="0%" stop-color="#22d3ee" stop-opacity="0.22"/>
      <stop offset="55%" stop-color="#22d3ee" stop-opacity="0.08"/>
      <stop offset="100%" stop-color="#08111f" stop-opacity="0"/>
    </radialGradient>
    <linearGradient id="edge" x1="0" y1="0" x2="1" y2="1">
      <stop offset="0" stop-color="rgba(255,255,255,0.16)"/>
      <stop offset="1" stop-color="rgba(255,255,255,0.03)"/>
    </linearGradient>
  </defs>
  <rect width="1200" height="630" fill="#08111f"/>
  <rect width="1200" height="630" fill="url(#glow)"/>
  <path d="M0 540 C190 475 330 605 520 535 C720 460 850 520 1200 410 L1200 630 L0 630Z" fill="rgba(255,255,255,0.035)"/>
  <path d="M110 110 H1090 V520" fill="none" stroke="url(#edge)" stroke-width="2"/>
  <text x="110" y="86" fill="#22d3ee" font-size="24" font-weight="700" letter-spacing="0">AI-Powered Engineering Teams</text>
  <text x="110" y="580" fill="rgba(255,255,255,0.82)" font-size="34" font-weight="700" letter-spacing="0">Intentional Integration</text>
  <g transform="translate(100 188)">
        <rect x="250" y="0" width="220" height="64" rx="14" fill="rgba(255,255,255,0.06)" stroke="#22d3ee" stroke-width="2" opacity="0.95"/>
  <text x="270" y="34" fill="rgba(255,255,255,0.86)" font-size="19" font-weight="700" letter-spacing="0">AI generates code</text>
  <rect x="500" y="110" width="220" height="64" rx="14" fill="rgba(255,255,255,0.06)" stroke="#fbbf24" stroke-width="2" opacity="0.95"/>
  <text x="520" y="144" fill="rgba(255,255,255,0.86)" font-size="19" font-weight="700" letter-spacing="0">PR review approves</text>
  <rect x="250" y="220" width="220" height="64" rx="14" fill="rgba(255,255,255,0.06)" stroke="#4ade80" stroke-width="2" opacity="0.95"/>
  <text x="270" y="254" fill="rgba(255,255,255,0.86)" font-size="19" font-weight="700" letter-spacing="0">Merged as pattern</text>
  <rect x="0" y="110" width="220" height="64" rx="14" fill="rgba(255,255,255,0.06)" stroke="#fb7185" stroke-width="2" opacity="0.95"/>
  <text x="20" y="144" fill="rgba(255,255,255,0.86)" font-size="19" font-weight="700" letter-spacing="0">Next AI session copies it</text>
  
        <line x1="470" y1="32" x2="500" y2="142" stroke="#22d3ee" stroke-width="3" stroke-linecap="round" opacity="0.78"/><polyline points="488.17434112573716,131.22253312741955 500,142 504.7166229255933,126.71100172745881" fill="none" stroke="#22d3ee" stroke-width="3" stroke-linecap="round" stroke-linejoin="round" opacity="0.78"/>
        <line x1="610" y1="174" x2="470" y2="252" stroke="#fbbf24" stroke-width="3" stroke-linecap="round" opacity="0.78"/><polyline points="477.62863647447773,237.93572235981287 470,252 485.9738543159449,252.9143184855231" fill="none" stroke="#fbbf24" stroke-width="3" stroke-linecap="round" stroke-linejoin="round" opacity="0.78"/>
        <line x1="250" y1="252" x2="110" y2="174" stroke="#4ade80" stroke-width="3" stroke-linecap="round" opacity="0.78"/><polyline points="125.97385431594488,173.0856815144769 110,174 117.62863647447774,188.06427764018713" fill="none" stroke="#4ade80" stroke-width="3" stroke-linecap="round" stroke-linejoin="round" opacity="0.78"/>
        <line x1="110" y1="110" x2="250" y2="32" stroke="#fb7185" stroke-width="3" stroke-linecap="round" opacity="0.78"/><polyline points="242.37136352552227,46.064277640187136 250,32 234.0261456840551,31.085681514476896" fill="none" stroke="#fb7185" stroke-width="3" stroke-linecap="round" stroke-linejoin="round" opacity="0.78"/>
        <rect x="760" y="70" width="230" height="180" rx="18" fill="rgba(34,211,238,0.1)" stroke="#22d3ee" stroke-width="3"/>
        <text x="785" y="104" fill="#67e8f9" font-size="14" font-weight="700" letter-spacing="0">CONSTRAINS GENERATION</text>
        <text x="785" y="144" fill="rgba(255,255,255,0.78)" font-size="24" font-weight="700" letter-spacing="0">Convention File</text>
        <text x="785" y="180" fill="rgba(255,255,255,0.54)" font-size="16" font-weight="700" letter-spacing="0">blessed patterns</text>
        <text x="785" y="206" fill="rgba(255,255,255,0.54)" font-size="16" font-weight="700" letter-spacing="0">anti-patterns</text>
        <line x1="760" y1="160" x2="470" y2="32" stroke="#22d3ee" stroke-width="4" stroke-linecap="round" opacity="0.78"/><polyline points="485.82075590336507,29.611761601904114 470,32 478.897092950894,45.29818547859643" fill="none" stroke="#22d3ee" stroke-width="4" stroke-linecap="round" stroke-linejoin="round" opacity="0.78"/>
      </g>
</svg>