<svg width="1200" height="630" viewBox="0 0 1200 630" xmlns="http://www.w3.org/2000/svg" role="img" aria-label="AI coding integration guarded by conventions, review, and architecture boundaries.">
  <style>
    :root { --accent: #22d3ee; --muted: rgba(255,255,255,0.28); }
    svg { font-family: "DM Sans", Arial, sans-serif; }
  </style>
  <defs>
    <radialGradient id="glow" cx="50%" cy="48%" r="58%">
      <stop offset="0%" stop-color="#22d3ee" stop-opacity="0.22"/>
      <stop offset="55%" stop-color="#22d3ee" stop-opacity="0.08"/>
      <stop offset="100%" stop-color="#08111f" stop-opacity="0"/>
    </radialGradient>
    <linearGradient id="edge" x1="0" y1="0" x2="1" y2="1">
      <stop offset="0" stop-color="rgba(255,255,255,0.16)"/>
      <stop offset="1" stop-color="rgba(255,255,255,0.03)"/>
    </linearGradient>
  </defs>
  <rect width="1200" height="630" fill="#08111f"/>
  <rect width="1200" height="630" fill="url(#glow)"/>
  <path d="M0 540 C190 475 330 605 520 535 C720 460 850 520 1200 410 L1200 630 L0 630Z" fill="rgba(255,255,255,0.035)"/>
  <path d="M110 110 H1090 V520" fill="none" stroke="url(#edge)" stroke-width="2"/>
  <text x="110" y="86" fill="#22d3ee" font-size="24" font-weight="700" letter-spacing="0">AI-Powered Engineering Teams</text>
  <text x="110" y="580" fill="rgba(255,255,255,0.82)" font-size="34" font-weight="700" letter-spacing="0">Intentional Integration</text>
  <g transform="translate(205 178)">
        <rect x="330" y="0" width="210" height="70" rx="14" fill="rgba(255,255,255,0.06)" stroke="#22d3ee" stroke-width="2" opacity="0.95"/>
  <text x="350" y="34" fill="rgba(255,255,255,0.86)" font-size="19" font-weight="700" letter-spacing="0">AI generates code</text>
  <rect x="590" y="130" width="210" height="70" rx="14" fill="rgba(255,255,255,0.06)" stroke="#fbbf24" stroke-width="2" opacity="0.95"/>
  <text x="610" y="164" fill="rgba(255,255,255,0.86)" font-size="19" font-weight="700" letter-spacing="0">PR review approves</text>
  <rect x="330" y="260" width="210" height="70" rx="14" fill="rgba(255,255,255,0.06)" stroke="#4ade80" stroke-width="2" opacity="0.95"/>
  <text x="350" y="294" fill="rgba(255,255,255,0.86)" font-size="19" font-weight="700" letter-spacing="0">Merged as pattern</text>
  <rect x="70" y="130" width="210" height="70" rx="14" fill="rgba(255,255,255,0.06)" stroke="#fb7185" stroke-width="2" opacity="0.95"/>
  <text x="90" y="164" fill="rgba(255,255,255,0.86)" font-size="19" font-weight="700" letter-spacing="0">Next AI session copies it</text>
  
        <line x1="540" y1="35" x2="590" y2="160" stroke="#22d3ee" stroke-width="3" stroke-linecap="round" opacity="0.78"/><polyline points="577.0227486590943,150.6409964400604 590,160 592.9428347227664,144.27296201459154" fill="none" stroke="#22d3ee" stroke-width="3" stroke-linecap="round" stroke-linejoin="round" opacity="0.78"/>
        <line x1="590" y1="200" x2="540" y2="295" stroke="#fbbf24" stroke-width="3" stroke-linecap="round" opacity="0.78"/><polyline points="538.7052771924173,279.05247063487496 540,295 553.8784898297757,287.0383720229583" fill="none" stroke="#fbbf24" stroke-width="3" stroke-linecap="round" stroke-linejoin="round" opacity="0.78"/>
        <line x1="330" y1="295" x2="280" y2="165" stroke="#4ade80" stroke-width="3" stroke-linecap="round" opacity="0.78"/><polyline points="292.8513223377759,174.53118639890027 280,165 276.84775162483146,180.68640590387892" fill="none" stroke="#4ade80" stroke-width="3" stroke-linecap="round" stroke-linejoin="round" opacity="0.78"/>
        <line x1="280" y1="130" x2="330" y2="35" stroke="#fb7185" stroke-width="3" stroke-linecap="round" opacity="0.78"/><polyline points="331.2947228075827,50.947529365125035 330,35 316.1215101702243,42.96162797704168" fill="none" stroke="#fb7185" stroke-width="3" stroke-linecap="round" stroke-linejoin="round" opacity="0.78"/>
        <rect x="705" y="85" width="230" height="160" rx="18" fill="rgba(34,211,238,0.1)" stroke="#22d3ee" stroke-width="3"/>
        <text x="742" y="136" fill="rgba(255,255,255,0.78)" font-size="24" font-weight="700" letter-spacing="0">Convention File</text>
        <text x="746" y="172" fill="rgba(255,255,255,0.54)" font-size="16" font-weight="700" letter-spacing="0">blessed patterns</text>
        <text x="746" y="198" fill="rgba(255,255,255,0.54)" font-size="16" font-weight="700" letter-spacing="0">anti-patterns</text>
      </g>
</svg>