<svg width="1200" height="630" viewBox="0 0 1200 630" xmlns="http://www.w3.org/2000/svg" role="img" aria-label="Data access architecture visual connecting application models, ORM mapping, queries, and database boundaries.">
  <style>
    :root { --accent: #f59e0b; --muted: rgba(255,255,255,0.28); }
    svg { font-family: "DM Sans", Arial, sans-serif; }
  </style>
  <defs>
    <radialGradient id="glow" cx="50%" cy="48%" r="58%">
      <stop offset="0%" stop-color="#f59e0b" stop-opacity="0.22"/>
      <stop offset="55%" stop-color="#f59e0b" stop-opacity="0.08"/>
      <stop offset="100%" stop-color="#08111f" stop-opacity="0"/>
    </radialGradient>
    <linearGradient id="edge" x1="0" y1="0" x2="1" y2="1">
      <stop offset="0" stop-color="rgba(255,255,255,0.16)"/>
      <stop offset="1" stop-color="rgba(255,255,255,0.03)"/>
    </linearGradient>
  </defs>
  <rect width="1200" height="630" fill="#08111f"/>
  <rect width="1200" height="630" fill="url(#glow)"/>
  <path d="M0 540 C190 475 330 605 520 535 C720 460 850 520 1200 410 L1200 630 L0 630Z" fill="rgba(255,255,255,0.035)"/>
  <path d="M110 110 H1090 V520" fill="none" stroke="url(#edge)" stroke-width="2"/>
  <text x="110" y="86" fill="#f59e0b" font-size="24" font-weight="700" letter-spacing="0">System Design for Scale</text>
  <text x="110" y="580" fill="rgba(255,255,255,0.82)" font-size="34" font-weight="700" letter-spacing="0">JPA / Hibernate</text>
  <rect x="260" y="270" width="820" height="380" rx="18" fill="rgba(255,255,255,0.055)" stroke="rgba(255,255,255,0.16)" stroke-width="2" /><rect x="350" y="350" width="360" height="36" rx="18" fill="rgba(255,255,255,0.18)" opacity="1"/><rect x="520" y="405" width="360" height="36" rx="18" fill="var(--accent)" opacity="0.75"/><rect x="690" y="460" width="360" height="36" rx="18" fill="rgba(255,255,255,0.18)" opacity="1"/><path d="M870 390 L940 460 L870 530" fill="none" stroke="var(--accent)" stroke-width="10" stroke-linecap="round" stroke-linejoin="round"/>
</svg>