<svg width="1200" height="630" viewBox="0 0 1200 630" xmlns="http://www.w3.org/2000/svg" role="img" aria-label="Coding model comparison visual for Kimi K2.6, GLM-5.1, and Claude Opus 4.7.">
  <style>
    :root { --accent: #a78bfa; --muted: rgba(255,255,255,0.28); }
    svg { font-family: "DM Sans", Arial, sans-serif; }
  </style>
  <defs>
    <radialGradient id="glow" cx="50%" cy="48%" r="58%">
      <stop offset="0%" stop-color="#a78bfa" stop-opacity="0.22"/>
      <stop offset="55%" stop-color="#a78bfa" stop-opacity="0.08"/>
      <stop offset="100%" stop-color="#08111f" stop-opacity="0"/>
    </radialGradient>
    <linearGradient id="edge" x1="0" y1="0" x2="1" y2="1">
      <stop offset="0" stop-color="rgba(255,255,255,0.16)"/>
      <stop offset="1" stop-color="rgba(255,255,255,0.03)"/>
    </linearGradient>
  </defs>
  <rect width="1200" height="630" fill="#08111f"/>
  <rect width="1200" height="630" fill="url(#glow)"/>
  <path d="M0 540 C190 475 330 605 520 535 C720 460 850 520 1200 410 L1200 630 L0 630Z" fill="rgba(255,255,255,0.035)"/>
  <path d="M110 110 H1090 V520" fill="none" stroke="url(#edge)" stroke-width="2"/>
  <text x="110" y="86" fill="#a78bfa" font-size="24" font-weight="700" letter-spacing="0">AI-Powered Engineering Teams</text>
  <text x="110" y="580" fill="rgba(255,255,255,0.82)" font-size="34" font-weight="700" letter-spacing="0">Coding Wars 2.0</text>
  <g transform="translate(210 190)">
        <rect x="0" y="0" width="800" height="320" rx="18" fill="rgba(255,255,255,0.055)" stroke="rgba(255,255,255,0.14)" stroke-width="2"/>
        <line x1="85" y1="260" x2="705" y2="260" stroke="rgba(255,255,255,0.24)" stroke-width="3" stroke-linecap="round" opacity="0.78"/>
        <line x1="85" y1="260" x2="85" y2="45" stroke="rgba(255,255,255,0.24)" stroke-width="3" stroke-linecap="round" opacity="0.78"/>
        <circle cx="210" cy="222" r="24" fill="#4ade80" opacity="0.95"/><text x="168" y="186" fill="rgba(255,255,255,0.82)" font-size="18" font-weight="700">Kimi K2.6</text><circle cx="365" cy="214" r="24" fill="#2dd4bf" opacity="0.95"/><text x="323" y="178" fill="rgba(255,255,255,0.82)" font-size="18" font-weight="700">GLM-5.1</text><circle cx="610" cy="78" r="24" fill="#a78bfa" opacity="0.95"/><text x="568" y="42" fill="rgba(255,255,255,0.82)" font-size="18" font-weight="700">Opus 4.7</text>
        <rect x="120" y="55" width="180" height="46" rx="10" fill="rgba(74,222,128,0.12)" stroke="#4ade80" stroke-width="2"/>
        <text x="144" y="84" fill="#bbf7d0" font-size="18" font-weight="700" letter-spacing="0">cheap lane</text>
        <rect x="510" y="145" width="190" height="46" rx="10" fill="rgba(167,139,250,0.12)" stroke="#a78bfa" stroke-width="2"/>
        <text x="535" y="174" fill="#ddd6fe" font-size="18" font-weight="700" letter-spacing="0">escalation lane</text>
        <text x="92" y="296" fill="#94a3b8" font-size="16" font-weight="700" letter-spacing="0">lower cost</text>
        <text x="640" y="296" fill="#94a3b8" font-size="16" font-weight="700" letter-spacing="0">higher cost</text>
        <text x="18" y="54" fill="#94a3b8" font-size="16" font-weight="700" letter-spacing="0">harder tasks</text>
      </g>
</svg>