<svg width="1200" height="630" viewBox="0 0 1200 630" xmlns="http://www.w3.org/2000/svg" role="img" aria-label="A dated 2025 mentor notebook showing communication, writing, and craft compounding into stronger engineering judgment.">
  <style>
    :root { --accent: #e879f9; --muted: rgba(255,255,255,0.28); }
    svg { font-family: "DM Sans", Arial, sans-serif; }
  </style>
  <defs>
    <radialGradient id="glow" cx="50%" cy="48%" r="58%">
      <stop offset="0%" stop-color="#e879f9" stop-opacity="0.22"/>
      <stop offset="55%" stop-color="#e879f9" stop-opacity="0.08"/>
      <stop offset="100%" stop-color="#08111f" stop-opacity="0"/>
    </radialGradient>
    <linearGradient id="edge" x1="0" y1="0" x2="1" y2="1">
      <stop offset="0" stop-color="rgba(255,255,255,0.16)"/>
      <stop offset="1" stop-color="rgba(255,255,255,0.03)"/>
    </linearGradient>
  </defs>
  <rect width="1200" height="630" fill="#08111f"/>
  <rect width="1200" height="630" fill="url(#glow)"/>
  <path d="M0 540 C190 475 330 605 520 535 C720 460 850 520 1200 410 L1200 630 L0 630Z" fill="rgba(255,255,255,0.035)"/>
  <path d="M110 110 H1090 V520" fill="none" stroke="url(#edge)" stroke-width="2"/>
  <text x="110" y="86" fill="#e879f9" font-size="24" font-weight="700" letter-spacing="0">Engineering Leadership</text>
  <text x="110" y="580" fill="rgba(255,255,255,0.82)" font-size="34" font-weight="700" letter-spacing="0">Lessons Learned: 2025</text>
  <g transform="translate(205 168)">
        <rect x="0" y="0" width="420" height="350" rx="20" fill="rgba(255,255,255,0.065)" stroke="rgba(255,255,255,0.2)" stroke-width="2"/>
        <rect x="305" y="-12" width="92" height="54" rx="10" fill="rgba(232,121,249,0.18)" stroke="#e879f9" stroke-width="2"/>
        <text x="325" y="23" fill="#f5d0fe" font-size="22" font-weight="700" letter-spacing="0">2025</text>
        <text x="34" y="48" fill="#f0abfc" font-size="19" font-weight="700" letter-spacing="0">MENTOR NOTES</text>
        <path d="M34 68 H380" stroke="rgba(255,255,255,0.18)" stroke-width="2"/>
        <circle cx="50" cy="112" r="12" fill="#e879f9" opacity="0.95"/><text x="82" y="120" fill="rgba(255,255,255,0.84)" font-size="20" font-weight="700" letter-spacing="0">Communication</text><path d="M82 136 H350" stroke="rgba(255,255,255,0.17)" stroke-width="3" stroke-linecap="round"/><circle cx="50" cy="182" r="12" fill="#e879f9" opacity="0.83"/><text x="82" y="190" fill="rgba(255,255,255,0.84)" font-size="20" font-weight="700" letter-spacing="0">Write it down</text><path d="M82 206 H350" stroke="rgba(255,255,255,0.17)" stroke-width="3" stroke-linecap="round"/><circle cx="50" cy="252" r="12" fill="#e879f9" opacity="0.71"/><text x="82" y="260" fill="rgba(255,255,255,0.84)" font-size="20" font-weight="700" letter-spacing="0">Small-problem craft</text><path d="M82 276 H350" stroke="rgba(255,255,255,0.17)" stroke-width="3" stroke-linecap="round"/>
        <text x="34" y="326" fill="#d8b4fe" font-size="16" font-weight="700" letter-spacing="0">foundations worth keeping</text>
        <line x1="420" y1="176" x2="510" y2="176" stroke="#e879f9" stroke-width="5" stroke-linecap="round" opacity="0.78"/><polyline points="496.49075319196777,184.57322871966394 510,176 496.49075319196777,167.42677128033606" fill="none" stroke="#e879f9" stroke-width="5" stroke-linecap="round" stroke-linejoin="round" opacity="0.78"/>
        <rect x="510" y="35" width="330" height="280" rx="20" fill="rgba(232,121,249,0.07)" stroke="rgba(232,121,249,0.45)" stroke-width="2"/>
        <text x="548" y="75" fill="#d8b4fe" font-size="16" font-weight="700" letter-spacing="0">small habits</text>
        <text x="635" y="304" fill="#f5d0fe" font-size="16" font-weight="700" letter-spacing="0">compounding judgment</text>
        <path d="M552 254 C610 244 635 224 660 194 S700 126 790 88" fill="none" stroke="#e879f9" stroke-width="8" stroke-linecap="round"/>
        <circle cx="552" cy="254" r="14" fill="#e879f9" opacity="0.95"/>
        <circle cx="660" cy="194" r="18" fill="#e879f9" opacity="0.95"/>
        <circle cx="790" cy="88" r="24" fill="#e879f9" opacity="0.95"/>
        <path d="M548 270 H800 M548 270 V88" stroke="rgba(255,255,255,0.18)" stroke-width="3" stroke-linecap="round"/>
      </g>
</svg>