<svg width="1200" height="630" viewBox="0 0 1200 630" xmlns="http://www.w3.org/2000/svg" role="img" aria-label="Engineering management in the AI era visual showing the supervision gap between AI output and human review.">
  <style>
    :root { --accent: #f472b6; --muted: rgba(255,255,255,0.28); }
    svg { font-family: "DM Sans", Arial, sans-serif; }
  </style>
  <defs>
    <radialGradient id="glow" cx="50%" cy="48%" r="58%">
      <stop offset="0%" stop-color="#f472b6" stop-opacity="0.22"/>
      <stop offset="55%" stop-color="#f472b6" stop-opacity="0.08"/>
      <stop offset="100%" stop-color="#08111f" stop-opacity="0"/>
    </radialGradient>
    <linearGradient id="edge" x1="0" y1="0" x2="1" y2="1">
      <stop offset="0" stop-color="rgba(255,255,255,0.16)"/>
      <stop offset="1" stop-color="rgba(255,255,255,0.03)"/>
    </linearGradient>
  </defs>
  <rect width="1200" height="630" fill="#08111f"/>
  <rect width="1200" height="630" fill="url(#glow)"/>
  <path d="M0 540 C190 475 330 605 520 535 C720 460 850 520 1200 410 L1200 630 L0 630Z" fill="rgba(255,255,255,0.035)"/>
  <path d="M110 110 H1090 V520" fill="none" stroke="url(#edge)" stroke-width="2"/>
  <text x="110" y="86" fill="#f472b6" font-size="24" font-weight="700" letter-spacing="0">Engineering Leadership</text>
  <text x="110" y="580" fill="rgba(255,255,255,0.82)" font-size="34" font-weight="700" letter-spacing="0">AI Management</text>
  <g transform="translate(230 190)">
        <rect x="0" y="0" width="760" height="320" rx="18" fill="rgba(255,255,255,0.055)" stroke="rgba(255,255,255,0.14)" stroke-width="2"/>
        <line x1="70" y1="260" x2="700" y2="260" stroke="rgba(255,255,255,0.25)" stroke-width="3" stroke-linecap="round" opacity="0.78"/>
        <line x1="70" y1="260" x2="70" y2="50" stroke="rgba(255,255,255,0.25)" stroke-width="3" stroke-linecap="round" opacity="0.78"/>
        <path d="M95 230 C210 210 315 170 425 102 S610 48 690 38 L690 218 C510 224 330 228 95 230Z" fill="rgba(244,114,182,0.12)" stroke="none"/>
        <path d="M95 230 C210 210 315 170 425 102 S610 48 690 38" fill="none" stroke="#f472b6" stroke-width="8" stroke-linecap="round"/>
        <path d="M95 230 C260 228 450 225 690 218" fill="none" stroke="#4ade80" stroke-width="8" stroke-linecap="round"/>
        <rect x="490" y="128" width="160" height="62" rx="12" fill="rgba(244,114,182,0.18)" stroke="#f472b6" stroke-width="2"/>
        <text x="512" y="154" fill="#fbcfe8" font-size="17" font-weight="700" letter-spacing="0">SUPERVISION</text>
        <text x="548" y="178" fill="#fbcfe8" font-size="20" font-weight="700" letter-spacing="0">GAP</text>
        <text x="105" y="78" fill="#f9a8d4" font-size="18" font-weight="700" letter-spacing="0">AI output accelerates</text>
        <text x="105" y="210" fill="#86efac" font-size="18" font-weight="700" letter-spacing="0">Human review stays scarce</text>
      </g>
</svg>