<svg width="1200" height="630" viewBox="0 0 1200 630" xmlns="http://www.w3.org/2000/svg" role="img" aria-label="No-code automation stack visual connecting tools, workflow logic, data, and human approval.">
  <style>
    :root { --accent: #f43f5e; --muted: rgba(255,255,255,0.28); }
    svg { font-family: "DM Sans", Arial, sans-serif; }
  </style>
  <defs>
    <radialGradient id="glow" cx="50%" cy="48%" r="58%">
      <stop offset="0%" stop-color="#f43f5e" stop-opacity="0.22"/>
      <stop offset="55%" stop-color="#f43f5e" stop-opacity="0.08"/>
      <stop offset="100%" stop-color="#08111f" stop-opacity="0"/>
    </radialGradient>
    <linearGradient id="edge" x1="0" y1="0" x2="1" y2="1">
      <stop offset="0" stop-color="rgba(255,255,255,0.16)"/>
      <stop offset="1" stop-color="rgba(255,255,255,0.03)"/>
    </linearGradient>
  </defs>
  <rect width="1200" height="630" fill="#08111f"/>
  <rect width="1200" height="630" fill="url(#glow)"/>
  <path d="M0 540 C190 475 330 605 520 535 C720 460 850 520 1200 410 L1200 630 L0 630Z" fill="rgba(255,255,255,0.035)"/>
  <path d="M110 110 H1090 V520" fill="none" stroke="url(#edge)" stroke-width="2"/>
  <text x="110" y="86" fill="#f43f5e" font-size="24" font-weight="700" letter-spacing="0">Automation Architecture</text>
  <text x="110" y="580" fill="rgba(255,255,255,0.82)" font-size="34" font-weight="700" letter-spacing="0">No-Code Stack</text>
  <rect x="310" y="350" width="160" height="210" rx="18" fill="rgba(255,255,255,0.055)" stroke="rgba(255,255,255,0.16)" stroke-width="2" /><circle cx="390" cy="318" r="24" fill="var(--accent)" opacity="0.95"/><rect x="530" y="302" width="160" height="258" rx="18" fill="rgba(255,255,255,0.055)" stroke="rgba(255,255,255,0.16)" stroke-width="2" /><circle cx="610" cy="270" r="24" fill="var(--accent)" opacity="0.95"/><rect x="750" y="254" width="160" height="306" rx="18" fill="rgba(255,255,255,0.055)" stroke="rgba(255,255,255,0.16)" stroke-width="2" /><circle cx="830" cy="222" r="24" fill="var(--accent)" opacity="0.95"/><line x1="300" y1="590" x2="1010" y2="590" stroke="var(--accent)" stroke-width="4" stroke-linecap="round" opacity="0.75"/>
</svg>