<svg width="1200" height="630" viewBox="0 0 1200 630" xmlns="http://www.w3.org/2000/svg" role="img" aria-label="SQL optimization visual showing query paths, indexes, execution analysis, and performance tuning.">
  <style>
    :root { --accent: #34d399; --muted: rgba(255,255,255,0.28); }
    svg { font-family: "DM Sans", Arial, sans-serif; }
  </style>
  <defs>
    <radialGradient id="glow" cx="50%" cy="48%" r="58%">
      <stop offset="0%" stop-color="#34d399" stop-opacity="0.22"/>
      <stop offset="55%" stop-color="#34d399" stop-opacity="0.08"/>
      <stop offset="100%" stop-color="#08111f" stop-opacity="0"/>
    </radialGradient>
    <linearGradient id="edge" x1="0" y1="0" x2="1" y2="1">
      <stop offset="0" stop-color="rgba(255,255,255,0.16)"/>
      <stop offset="1" stop-color="rgba(255,255,255,0.03)"/>
    </linearGradient>
  </defs>
  <rect width="1200" height="630" fill="#08111f"/>
  <rect width="1200" height="630" fill="url(#glow)"/>
  <path d="M0 540 C190 475 330 605 520 535 C720 460 850 520 1200 410 L1200 630 L0 630Z" fill="rgba(255,255,255,0.035)"/>
  <path d="M110 110 H1090 V520" fill="none" stroke="url(#edge)" stroke-width="2"/>
  <text x="110" y="86" fill="#34d399" font-size="24" font-weight="700" letter-spacing="0">System Design for Scale</text>
  <text x="110" y="580" fill="rgba(255,255,255,0.82)" font-size="34" font-weight="700" letter-spacing="0">SQL Optimization</text>
  <rect x="300" y="280" width="720" height="390" rx="18" fill="rgba(255,255,255,0.055)" stroke="rgba(255,255,255,0.16)" stroke-width="2" /><line x1="420" y1="320" x2="420" y2="630" stroke="var(--muted)" stroke-width="4" stroke-linecap="round" opacity="0.75"/><line x1="340" y1="390" x2="980" y2="390" stroke="var(--muted)" stroke-width="4" stroke-linecap="round" opacity="0.75"/><line x1="540" y1="320" x2="540" y2="630" stroke="var(--muted)" stroke-width="4" stroke-linecap="round" opacity="0.75"/><line x1="340" y1="455" x2="980" y2="455" stroke="var(--muted)" stroke-width="4" stroke-linecap="round" opacity="0.75"/><line x1="660" y1="320" x2="660" y2="630" stroke="var(--muted)" stroke-width="4" stroke-linecap="round" opacity="0.75"/><line x1="340" y1="520" x2="980" y2="520" stroke="var(--muted)" stroke-width="4" stroke-linecap="round" opacity="0.75"/><line x1="780" y1="320" x2="780" y2="630" stroke="var(--muted)" stroke-width="4" stroke-linecap="round" opacity="0.75"/><line x1="340" y1="585" x2="980" y2="585" stroke="var(--muted)" stroke-width="4" stroke-linecap="round" opacity="0.75"/><path d="M380 580 C520 510 625 440 760 380 S920 315 985 315" fill="none" stroke="var(--accent)" stroke-width="7"/><circle cx="760" cy="380" r="22" fill="var(--accent)" opacity="0.95"/>
</svg>