<svg width="1200" height="630" viewBox="0 0 1200 630" xmlns="http://www.w3.org/2000/svg" role="img" aria-label="Lived feedback calibrates a human chooser to reject plausible AI imitation and keep the detail that survives judgment.">
  <style>
    :root { --accent: #e879f9; --muted: rgba(255,255,255,0.28); }
    svg { font-family: "DM Sans", Arial, sans-serif; }
  </style>
  <defs>
    <radialGradient id="glow" cx="50%" cy="48%" r="58%">
      <stop offset="0%" stop-color="#e879f9" stop-opacity="0.22"/>
      <stop offset="55%" stop-color="#e879f9" stop-opacity="0.08"/>
      <stop offset="100%" stop-color="#08111f" stop-opacity="0"/>
    </radialGradient>
    <linearGradient id="edge" x1="0" y1="0" x2="1" y2="1">
      <stop offset="0" stop-color="rgba(255,255,255,0.16)"/>
      <stop offset="1" stop-color="rgba(255,255,255,0.03)"/>
    </linearGradient>
  </defs>
  <rect width="1200" height="630" fill="#08111f"/>
  <rect width="1200" height="630" fill="url(#glow)"/>
  <path d="M0 540 C190 475 330 605 520 535 C720 460 850 520 1200 410 L1200 630 L0 630Z" fill="rgba(255,255,255,0.035)"/>
  <path d="M110 110 H1090 V520" fill="none" stroke="url(#edge)" stroke-width="2"/>
  <text x="110" y="86" fill="#e879f9" font-size="24" font-weight="700" letter-spacing="0">Engineering Leadership</text>
  <text x="110" y="580" fill="rgba(255,255,255,0.82)" font-size="34" font-weight="700" letter-spacing="0">Taste Is a Moat</text>
  <g transform="translate(125 180)">
        <rect x="0" y="32" width="285" height="270" rx="20" fill="rgba(255,255,255,0.05)" stroke="rgba(255,255,255,0.16)" stroke-width="2"/>
        <text x="34" y="72" fill="rgba(255,255,255,0.68)" font-size="23" font-weight="700" letter-spacing="0">IMITATION</text>
        <rect x="35" y="105" width="90" height="56" rx="12" fill="rgba(232,121,249,0.1)" stroke="rgba(255,255,255,0.2)" stroke-width="2"/><path d="M52 125 H108 M52 143 H92" stroke="rgba(255,255,255,0.3)" stroke-width="4" stroke-linecap="round"/><rect x="150" y="105" width="90" height="56" rx="12" fill="rgba(232,121,249,0.1)" stroke="rgba(255,255,255,0.2)" stroke-width="2"/><path d="M167 125 H223 M167 143 H207" stroke="rgba(255,255,255,0.3)" stroke-width="4" stroke-linecap="round"/><rect x="35" y="187" width="90" height="56" rx="12" fill="rgba(232,121,249,0.1)" stroke="rgba(255,255,255,0.2)" stroke-width="2"/><path d="M52 207 H108 M52 225 H92" stroke="rgba(255,255,255,0.3)" stroke-width="4" stroke-linecap="round"/><rect x="150" y="187" width="90" height="56" rx="12" fill="rgba(232,121,249,0.1)" stroke="rgba(255,255,255,0.2)" stroke-width="2"/><path d="M167 207 H223 M167 225 H207" stroke="rgba(255,255,255,0.3)" stroke-width="4" stroke-linecap="round"/>
        <path d="M330 32 C285 82 285 252 330 302 M665 32 C710 82 710 252 665 302" fill="none" stroke="#e879f9" stroke-width="8" stroke-linecap="round"/>
        <text x="420" y="48" fill="#f0abfc" font-size="22" font-weight="700" letter-spacing="0">LIVED FEEDBACK</text>
        <circle cx="498" cy="98" r="18" fill="rgba(232,121,249,0.18)" stroke="#e879f9" stroke-width="2"/><text x="535" y="104" fill="#f5d0fe" font-size="16" font-weight="700" letter-spacing="0">feedback</text><circle cx="498" cy="168" r="23" fill="rgba(232,121,249,0.26)" stroke="#e879f9" stroke-width="2"/><text x="535" y="174" fill="#f5d0fe" font-size="16" font-weight="700" letter-spacing="0">consequences</text><circle cx="498" cy="238" r="28" fill="rgba(232,121,249,0.33999999999999997)" stroke="#e879f9" stroke-width="2"/><text x="535" y="244" fill="#f5d0fe" font-size="16" font-weight="700" letter-spacing="0">repetition</text>
        <line x1="665" y1="167" x2="750" y2="167" stroke="#e879f9" stroke-width="5" stroke-linecap="round" opacity="0.78"/><polyline points="736.4907531919678,175.57322871966394 750,167 736.4907531919678,158.42677128033606" fill="none" stroke="#e879f9" stroke-width="5" stroke-linecap="round" stroke-linejoin="round" opacity="0.78"/>
        <rect x="740" y="72" width="270" height="190" rx="20" fill="rgba(232,121,249,0.1)" stroke="#e879f9" stroke-width="3"/>
        <text x="790" y="112" fill="#f5d0fe" font-size="23" font-weight="700" letter-spacing="0">CHOOSER</text>
        <rect x="820" y="140" width="110" height="72" rx="14" fill="rgba(232,121,249,0.18)" stroke="#e879f9" stroke-width="3"/>
        <path d="M845 166 H905 M845 188 H890" stroke="#f5d0fe" stroke-width="5" stroke-linecap="round"/>
        <path d="M765 220 L785 240 M785 220 L765 240 M965 220 L985 240 M985 220 L965 240" stroke="#fb7185" stroke-width="5" stroke-linecap="round"/>
        <text x="802" y="248" fill="#f5d0fe" font-size="16" font-weight="700" letter-spacing="0">keep one</text>
      </g>
</svg>