<svg width="1200" height="630" viewBox="0 0 1200 630" xmlns="http://www.w3.org/2000/svg" role="img" aria-label="Taste is a moat visual representing human judgment, craft, and selection in an AI-heavy world.">
  <style>
    :root { --accent: #e879f9; --muted: rgba(255,255,255,0.28); }
    svg { font-family: "DM Sans", Arial, sans-serif; }
  </style>
  <defs>
    <radialGradient id="glow" cx="50%" cy="48%" r="58%">
      <stop offset="0%" stop-color="#e879f9" stop-opacity="0.22"/>
      <stop offset="55%" stop-color="#e879f9" stop-opacity="0.08"/>
      <stop offset="100%" stop-color="#08111f" stop-opacity="0"/>
    </radialGradient>
    <linearGradient id="edge" x1="0" y1="0" x2="1" y2="1">
      <stop offset="0" stop-color="rgba(255,255,255,0.16)"/>
      <stop offset="1" stop-color="rgba(255,255,255,0.03)"/>
    </linearGradient>
  </defs>
  <rect width="1200" height="630" fill="#08111f"/>
  <rect width="1200" height="630" fill="url(#glow)"/>
  <path d="M0 540 C190 475 330 605 520 535 C720 460 850 520 1200 410 L1200 630 L0 630Z" fill="rgba(255,255,255,0.035)"/>
  <path d="M110 110 H1090 V520" fill="none" stroke="url(#edge)" stroke-width="2"/>
  <text x="110" y="86" fill="#e879f9" font-size="24" font-weight="700" letter-spacing="0">Engineering Leadership</text>
  <text x="110" y="580" fill="rgba(255,255,255,0.82)" font-size="34" font-weight="700" letter-spacing="0">Taste Is a Moat</text>
  <g transform="translate(230 182)">
        <rect x="0" y="130" width="745" height="150" rx="18" fill="rgba(255,255,255,0.045)" stroke="rgba(255,255,255,0.14)" stroke-width="2"/>
        <circle cx="95" cy="235" r="32" fill="rgba(232,121,249,0.22)" stroke="rgba(255,255,255,0.22)" stroke-width="2"/><circle cx="213" cy="167" r="32" fill="rgba(232,121,249,0.195)" stroke="rgba(255,255,255,0.22)" stroke-width="2"/><circle cx="331" cy="235" r="32" fill="rgba(232,121,249,0.16999999999999998)" stroke="rgba(255,255,255,0.22)" stroke-width="2"/><circle cx="449" cy="167" r="32" fill="rgba(232,121,249,0.145)" stroke="#e879f9" stroke-width="4"/><circle cx="567" cy="235" r="32" fill="rgba(232,121,249,0.12)" stroke="rgba(255,255,255,0.22)" stroke-width="2"/>
        <line x1="108" y1="205" x2="555" y2="168" stroke="#e879f9" stroke-width="3" stroke-linecap="round" opacity="0.78"/><polyline points="542.2440185309553,177.65841274544562 555,168 540.8295741109312,160.57039502245195" fill="none" stroke="#e879f9" stroke-width="3" stroke-linecap="round" stroke-linejoin="round" opacity="0.78"/>
        <path d="M600 117 C658 155 665 226 610 270 C672 252 717 214 735 165" fill="none" stroke="#e879f9" stroke-width="7" stroke-linecap="round"/>
        <text x="60" y="86" fill="rgba(255,255,255,0.64)" font-size="22" font-weight="700" letter-spacing="0">many acceptable outputs</text>
        <text x="586" y="94" fill="#f0abfc" font-size="24" font-weight="700" letter-spacing="0">chosen</text>
        <text x="586" y="320" fill="rgba(255,255,255,0.72)" font-size="20" font-weight="700" letter-spacing="0">judgment is the filter</text>
      </g>
</svg>